<svg width="249" height="250" viewBox="0 0 249 250" fill="none" xmlns="http://www.w3.org/2000/svg">
<mask id="mask0" mask-type="alpha" maskUnits="userSpaceOnUse" x="0" y="5" width="249" height="246">
<ellipse cx="2.76935" cy="196.059" rx="2.76935" ry="2.80594" fill="#D1D9E0"/>
<ellipse cx="92.9764" cy="196.06" rx="2.76933" ry="2.80594" fill="#D1D9E0"/>
<ellipse cx="2.76935" cy="230.148" rx="2.76935" ry="2.80594" fill="#D1D9E0"/>
<ellipse cx="92.9764" cy="230.149" rx="2.76933" ry="2.80594" fill="#D1D9E0"/>
<ellipse cx="2.76935" cy="213.104" rx="2.76935" ry="2.80594" fill="#D1D9E0"/>
<ellipse cx="92.9764" cy="213.105" rx="2.76933" ry="2.80594" fill="#D1D9E0"/>
<ellipse cx="2.76935" cy="247.193" rx="2.76935" ry="2.80594" fill="#D1D9E0"/>
<ellipse cx="92.9764" cy="247.194" rx="2.76933" ry="2.80594" fill="#D1D9E0"/>
<ellipse cx="17.6717" cy="196.061" rx="2.76933" ry="2.80594" fill="#D1D9E0"/>
<ellipse cx="107.879" cy="196.061" rx="2.76937" ry="2.80594" fill="#D1D9E0"/>
<ellipse cx="17.6717" cy="230.149" rx="2.76933" ry="2.80594" fill="#D1D9E0"/>
<ellipse cx="107.879" cy="230.149" rx="2.76937" ry="2.80594" fill="#D1D9E0"/>
<ellipse cx="17.6717" cy="213.105" rx="2.76933" ry="2.80594" fill="#D1D9E0"/>
<ellipse cx="107.879" cy="213.105" rx="2.76937" ry="2.80594" fill="#D1D9E0"/>
<ellipse cx="17.6717" cy="247.194" rx="2.76933" ry="2.80594" fill="#D1D9E0"/>
<ellipse cx="107.879" cy="247.194" rx="2.76937" ry="2.80594" fill="#D1D9E0"/>
<ellipse cx="32.5741" cy="196.06" rx="2.76937" ry="2.80594" fill="#D1D9E0"/>
<ellipse cx="122.781" cy="196.06" rx="2.76937" ry="2.80594" fill="#D1D9E0"/>
<ellipse cx="32.5741" cy="230.149" rx="2.76937" ry="2.80594" fill="#D1D9E0"/>
<ellipse cx="122.781" cy="230.149" rx="2.76937" ry="2.80594" fill="#D1D9E0"/>
<ellipse cx="32.5741" cy="213.105" rx="2.76937" ry="2.80594" fill="#D1D9E0"/>
<ellipse cx="122.781" cy="213.105" rx="2.76937" ry="2.80594" fill="#D1D9E0"/>
<ellipse cx="32.5741" cy="247.194" rx="2.76937" ry="2.80594" fill="#D1D9E0"/>
<ellipse cx="122.781" cy="247.194" rx="2.76937" ry="2.80594" fill="#D1D9E0"/>
<ellipse cx="47.4764" cy="196.061" rx="2.76933" ry="2.80594" fill="#D1D9E0"/>
<ellipse cx="137.687" cy="196.061" rx="2.76937" ry="2.80594" fill="#D1D9E0"/>
<ellipse cx="47.4764" cy="230.149" rx="2.76933" ry="2.80594" fill="#D1D9E0"/>
<ellipse cx="137.687" cy="230.149" rx="2.76937" ry="2.80594" fill="#D1D9E0"/>
<ellipse cx="47.4764" cy="213.105" rx="2.76933" ry="2.80594" fill="#D1D9E0"/>
<ellipse cx="137.687" cy="213.105" rx="2.76937" ry="2.80594" fill="#D1D9E0"/>
<ellipse cx="47.4764" cy="247.194" rx="2.76933" ry="2.80594" fill="#D1D9E0"/>
<ellipse cx="137.687" cy="247.194" rx="2.76937" ry="2.80594" fill="#D1D9E0"/>
<ellipse cx="62.3787" cy="196.06" rx="2.76937" ry="2.80594" fill="#D1D9E0"/>
<ellipse cx="152.586" cy="196.06" rx="2.76937" ry="2.80594" fill="#D1D9E0"/>
<ellipse cx="62.3787" cy="230.149" rx="2.76937" ry="2.80594" fill="#D1D9E0"/>
<ellipse cx="152.586" cy="230.149" rx="2.76937" ry="2.80594" fill="#D1D9E0"/>
<ellipse cx="62.3787" cy="213.105" rx="2.76937" ry="2.80594" fill="#D1D9E0"/>
<ellipse cx="152.586" cy="213.105" rx="2.76937" ry="2.80594" fill="#D1D9E0"/>
<ellipse cx="62.3787" cy="247.194" rx="2.76937" ry="2.80594" fill="#D1D9E0"/>
<ellipse cx="152.586" cy="247.194" rx="2.76937" ry="2.80594" fill="#D1D9E0"/>
<ellipse cx="77.6767" cy="196.061" rx="3.165" ry="2.80594" fill="#D1D9E0"/>
<ellipse cx="167.888" cy="196.061" rx="3.16496" ry="2.80594" fill="#D1D9E0"/>
<ellipse cx="77.6767" cy="230.149" rx="3.165" ry="2.80594" fill="#D1D9E0"/>
<ellipse cx="167.888" cy="230.149" rx="3.16496" ry="2.80594" fill="#D1D9E0"/>
<ellipse cx="77.6767" cy="213.105" rx="3.165" ry="2.80594" fill="#D1D9E0"/>
<ellipse cx="167.888" cy="213.105" rx="3.16496" ry="2.80594" fill="#D1D9E0"/>
<ellipse cx="77.6767" cy="247.194" rx="3.165" ry="2.80594" fill="#D1D9E0"/>
<ellipse cx="167.888" cy="247.194" rx="3.16496" ry="2.80594" fill="#D1D9E0"/>
<ellipse cx="2.76935" cy="126.424" rx="2.76935" ry="2.80594" fill="#D1D9E0"/>
<ellipse cx="92.9764" cy="126.423" rx="2.76933" ry="2.80594" fill="#D1D9E0"/>
<ellipse cx="2.76935" cy="160.512" rx="2.76935" ry="2.80594" fill="#D1D9E0"/>
<ellipse cx="92.9764" cy="160.512" rx="2.76933" ry="2.80594" fill="#D1D9E0"/>
<ellipse cx="2.76935" cy="143.467" rx="2.76935" ry="2.80594" fill="#D1D9E0"/>
<ellipse cx="92.9764" cy="143.469" rx="2.76933" ry="2.80594" fill="#D1D9E0"/>
<ellipse cx="2.76935" cy="177.556" rx="2.76935" ry="2.80594" fill="#D1D9E0"/>
<ellipse cx="92.9764" cy="177.557" rx="2.76933" ry="2.80594" fill="#D1D9E0"/>
<ellipse cx="17.6717" cy="126.423" rx="2.76933" ry="2.80594" fill="#D1D9E0"/>
<ellipse cx="107.879" cy="126.423" rx="2.76937" ry="2.80594" fill="#D1D9E0"/>
<ellipse cx="17.6717" cy="160.512" rx="2.76933" ry="2.80594" fill="#D1D9E0"/>
<ellipse cx="107.879" cy="160.512" rx="2.76937" ry="2.80594" fill="#D1D9E0"/>
<ellipse cx="17.6717" cy="143.469" rx="2.76933" ry="2.80594" fill="#D1D9E0"/>
<ellipse cx="107.879" cy="143.469" rx="2.76937" ry="2.80594" fill="#D1D9E0"/>
<ellipse cx="17.6717" cy="177.557" rx="2.76933" ry="2.80594" fill="#D1D9E0"/>
<ellipse cx="107.879" cy="177.557" rx="2.76937" ry="2.80594" fill="#D1D9E0"/>
<ellipse cx="32.5741" cy="126.423" rx="2.76937" ry="2.80594" fill="#D1D9E0"/>
<ellipse cx="122.781" cy="126.423" rx="2.76937" ry="2.80594" fill="#D1D9E0"/>
<ellipse cx="32.5741" cy="160.512" rx="2.76937" ry="2.80594" fill="#D1D9E0"/>
<ellipse cx="122.781" cy="160.512" rx="2.76937" ry="2.80594" fill="#D1D9E0"/>
<ellipse cx="32.5741" cy="143.469" rx="2.76937" ry="2.80594" fill="#D1D9E0"/>
<ellipse cx="122.781" cy="143.469" rx="2.76937" ry="2.80594" fill="#D1D9E0"/>
<ellipse cx="32.5741" cy="177.557" rx="2.76937" ry="2.80594" fill="#D1D9E0"/>
<ellipse cx="122.781" cy="177.557" rx="2.76937" ry="2.80594" fill="#D1D9E0"/>
<ellipse cx="47.4764" cy="126.423" rx="2.76933" ry="2.80594" fill="#D1D9E0"/>
<ellipse cx="137.687" cy="126.423" rx="2.76937" ry="2.80594" fill="#D1D9E0"/>
<ellipse cx="47.4764" cy="160.512" rx="2.76933" ry="2.80594" fill="#D1D9E0"/>
<ellipse cx="137.687" cy="160.512" rx="2.76937" ry="2.80594" fill="#D1D9E0"/>
<ellipse cx="47.4764" cy="143.469" rx="2.76933" ry="2.80594" fill="#D1D9E0"/>
<ellipse cx="137.687" cy="143.469" rx="2.76937" ry="2.80594" fill="#D1D9E0"/>
<ellipse cx="47.4764" cy="177.557" rx="2.76933" ry="2.80594" fill="#D1D9E0"/>
<ellipse cx="137.687" cy="177.557" rx="2.76937" ry="2.80594" fill="#D1D9E0"/>
<ellipse cx="62.3787" cy="126.423" rx="2.76937" ry="2.80594" fill="#D1D9E0"/>
<ellipse cx="152.59" cy="126.423" rx="2.76937" ry="2.80594" fill="#D1D9E0"/>
<ellipse cx="62.3787" cy="160.512" rx="2.76937" ry="2.80594" fill="#D1D9E0"/>
<ellipse cx="152.586" cy="160.512" rx="2.76937" ry="2.80594" fill="#D1D9E0"/>
<ellipse cx="62.3787" cy="143.469" rx="2.76937" ry="2.80594" fill="#D1D9E0"/>
<ellipse cx="152.586" cy="143.469" rx="2.76937" ry="2.80594" fill="#D1D9E0"/>
<ellipse cx="62.3787" cy="177.557" rx="2.76937" ry="2.80594" fill="#D1D9E0"/>
<ellipse cx="152.586" cy="177.557" rx="2.76937" ry="2.80594" fill="#D1D9E0"/>
<ellipse cx="77.6767" cy="126.423" rx="3.165" ry="2.80594" fill="#D1D9E0"/>
<ellipse cx="167.888" cy="126.423" rx="3.16496" ry="2.80594" fill="#D1D9E0"/>
<ellipse cx="77.6767" cy="160.512" rx="3.165" ry="2.80594" fill="#D1D9E0"/>
<ellipse cx="167.888" cy="160.512" rx="3.16496" ry="2.80594" fill="#D1D9E0"/>
<ellipse cx="77.6767" cy="143.469" rx="3.165" ry="2.80594" fill="#D1D9E0"/>
<ellipse cx="167.888" cy="143.469" rx="3.16496" ry="2.80594" fill="#D1D9E0"/>
<ellipse cx="77.6767" cy="177.557" rx="3.165" ry="2.80594" fill="#D1D9E0"/>
<ellipse cx="167.888" cy="177.557" rx="3.16496" ry="2.80594" fill="#D1D9E0"/>
<ellipse cx="185.765" cy="196.063" rx="2.76937" ry="2.80594" fill="#D1D9E0"/>
<ellipse cx="185.765" cy="230.149" rx="2.76937" ry="2.80594" fill="#D1D9E0"/>
<ellipse cx="185.765" cy="213.104" rx="2.76937" ry="2.80594" fill="#D1D9E0"/>
<ellipse cx="185.765" cy="247.194" rx="2.76937" ry="2.80594" fill="#D1D9E0"/>
<ellipse cx="200.668" cy="196.06" rx="2.76933" ry="2.80594" fill="#D1D9E0"/>
<ellipse cx="200.668" cy="230.149" rx="2.76933" ry="2.80594" fill="#D1D9E0"/>
<ellipse cx="200.668" cy="213.105" rx="2.76933" ry="2.80594" fill="#D1D9E0"/>
<ellipse cx="200.668" cy="247.194" rx="2.76933" ry="2.80594" fill="#D1D9E0"/>
<ellipse cx="215.57" cy="196.06" rx="2.76933" ry="2.80594" fill="#D1D9E0"/>
<ellipse cx="215.57" cy="230.149" rx="2.76933" ry="2.80594" fill="#D1D9E0"/>
<ellipse cx="215.57" cy="213.104" rx="2.76933" ry="2.80594" fill="#D1D9E0"/>
<ellipse cx="215.57" cy="247.194" rx="2.76933" ry="2.80594" fill="#D1D9E0"/>
<ellipse cx="230.472" cy="196.06" rx="2.76937" ry="2.80594" fill="#D1D9E0"/>
<ellipse cx="230.472" cy="230.149" rx="2.76937" ry="2.80594" fill="#D1D9E0"/>
<ellipse cx="230.472" cy="213.105" rx="2.76937" ry="2.80594" fill="#D1D9E0"/>
<ellipse cx="230.472" cy="247.194" rx="2.76937" ry="2.80594" fill="#D1D9E0"/>
<ellipse cx="245.375" cy="196.06" rx="2.76937" ry="2.80594" fill="#D1D9E0"/>
<ellipse cx="245.375" cy="230.149" rx="2.76937" ry="2.80594" fill="#D1D9E0"/>
<ellipse cx="245.375" cy="213.104" rx="2.76937" ry="2.80594" fill="#D1D9E0"/>
<ellipse cx="245.375" cy="247.194" rx="2.76937" ry="2.80594" fill="#D1D9E0"/>
<ellipse cx="185.765" cy="126.426" rx="2.76937" ry="2.80594" fill="#D1D9E0"/>
<ellipse cx="185.765" cy="160.514" rx="2.76937" ry="2.80594" fill="#D1D9E0"/>
<ellipse cx="185.765" cy="143.469" rx="2.76937" ry="2.80594" fill="#D1D9E0"/>
<ellipse cx="185.765" cy="177.559" rx="2.76937" ry="2.80594" fill="#D1D9E0"/>
<ellipse cx="200.668" cy="126.425" rx="2.76933" ry="2.80594" fill="#D1D9E0"/>
<ellipse cx="200.668" cy="160.514" rx="2.76933" ry="2.80594" fill="#D1D9E0"/>
<ellipse cx="200.668" cy="143.47" rx="2.76933" ry="2.80594" fill="#D1D9E0"/>
<ellipse cx="200.668" cy="177.559" rx="2.76933" ry="2.80594" fill="#D1D9E0"/>
<ellipse cx="215.57" cy="126.425" rx="2.76933" ry="2.80594" fill="#D1D9E0"/>
<ellipse cx="215.57" cy="160.514" rx="2.76933" ry="2.80594" fill="#D1D9E0"/>
<ellipse cx="215.57" cy="143.469" rx="2.76933" ry="2.80594" fill="#D1D9E0"/>
<ellipse cx="215.57" cy="177.559" rx="2.76933" ry="2.80594" fill="#D1D9E0"/>
<ellipse cx="230.472" cy="126.425" rx="2.76933" ry="2.80594" fill="#D1D9E0"/>
<ellipse cx="230.472" cy="160.514" rx="2.76937" ry="2.80594" fill="#D1D9E0"/>
<ellipse cx="230.472" cy="143.47" rx="2.76933" ry="2.80594" fill="#D1D9E0"/>
<ellipse cx="230.472" cy="177.559" rx="2.76937" ry="2.80594" fill="#D1D9E0"/>
<ellipse cx="245.375" cy="126.425" rx="2.76937" ry="2.80594" fill="#D1D9E0"/>
<ellipse cx="245.375" cy="160.514" rx="2.76937" ry="2.80594" fill="#D1D9E0"/>
<ellipse cx="245.375" cy="143.469" rx="2.76937" ry="2.80594" fill="#D1D9E0"/>
<ellipse cx="245.375" cy="177.559" rx="2.76937" ry="2.80594" fill="#D1D9E0"/>
<ellipse cx="2.76935" cy="60.3972" rx="2.76935" ry="2.80594" fill="#D1D9E0"/>
<ellipse cx="92.9764" cy="60.3985" rx="2.76933" ry="2.80594" fill="#D1D9E0"/>
<ellipse cx="2.76935" cy="94.4871" rx="2.76935" ry="2.80594" fill="#D1D9E0"/>
<ellipse cx="92.9764" cy="94.4883" rx="2.76933" ry="2.80594" fill="#D1D9E0"/>
<ellipse cx="2.76935" cy="77.4424" rx="2.76935" ry="2.80594" fill="#D1D9E0"/>
<ellipse cx="92.9764" cy="77.4441" rx="2.76933" ry="2.80594" fill="#D1D9E0"/>
<ellipse cx="2.76935" cy="111.531" rx="2.76935" ry="2.80594" fill="#D1D9E0"/>
<ellipse cx="92.9764" cy="111.533" rx="2.76933" ry="2.80594" fill="#D1D9E0"/>
<ellipse cx="17.6717" cy="60.3994" rx="2.76935" ry="2.80594" fill="#D1D9E0"/>
<ellipse cx="107.879" cy="60.3994" rx="2.76937" ry="2.80594" fill="#D1D9E0"/>
<ellipse cx="17.6717" cy="94.4883" rx="2.76935" ry="2.80594" fill="#D1D9E0"/>
<ellipse cx="107.879" cy="94.4883" rx="2.76937" ry="2.80594" fill="#D1D9E0"/>
<ellipse cx="17.6717" cy="77.4441" rx="2.76935" ry="2.80594" fill="#D1D9E0"/>
<ellipse cx="107.879" cy="77.4441" rx="2.76937" ry="2.80594" fill="#D1D9E0"/>
<ellipse cx="17.6717" cy="111.533" rx="2.76935" ry="2.80594" fill="#D1D9E0"/>
<ellipse cx="107.879" cy="111.533" rx="2.76937" ry="2.80594" fill="#D1D9E0"/>
<ellipse cx="32.5741" cy="60.3985" rx="2.76937" ry="2.80594" fill="#D1D9E0"/>
<ellipse cx="122.781" cy="60.3985" rx="2.76937" ry="2.80594" fill="#D1D9E0"/>
<ellipse cx="32.5741" cy="94.4883" rx="2.76937" ry="2.80594" fill="#D1D9E0"/>
<ellipse cx="122.781" cy="94.4883" rx="2.76937" ry="2.80594" fill="#D1D9E0"/>
<ellipse cx="32.5741" cy="77.4429" rx="2.76937" ry="2.80594" fill="#D1D9E0"/>
<ellipse cx="122.781" cy="77.4429" rx="2.76937" ry="2.80594" fill="#D1D9E0"/>
<ellipse cx="32.5741" cy="111.533" rx="2.76937" ry="2.80594" fill="#D1D9E0"/>
<ellipse cx="122.781" cy="111.533" rx="2.76937" ry="2.80594" fill="#D1D9E0"/>
<ellipse cx="47.4764" cy="60.3994" rx="2.76933" ry="2.80594" fill="#D1D9E0"/>
<ellipse cx="137.687" cy="60.3994" rx="2.76937" ry="2.80594" fill="#D1D9E0"/>
<ellipse cx="47.4764" cy="94.4876" rx="2.76933" ry="2.80594" fill="#D1D9E0"/>
<ellipse cx="137.687" cy="94.4876" rx="2.76937" ry="2.80594" fill="#D1D9E0"/>
<ellipse cx="47.4764" cy="77.4441" rx="2.76933" ry="2.80594" fill="#D1D9E0"/>
<ellipse cx="137.687" cy="77.4441" rx="2.76937" ry="2.80594" fill="#D1D9E0"/>
<ellipse cx="47.4764" cy="111.533" rx="2.76933" ry="2.80594" fill="#D1D9E0"/>
<ellipse cx="137.687" cy="111.533" rx="2.76937" ry="2.80594" fill="#D1D9E0"/>
<ellipse cx="62.3787" cy="60.3985" rx="2.76937" ry="2.80594" fill="#D1D9E0"/>
<ellipse cx="152.586" cy="60.3985" rx="2.76937" ry="2.80594" fill="#D1D9E0"/>
<ellipse cx="62.3787" cy="94.4876" rx="2.76937" ry="2.80594" fill="#D1D9E0"/>
<ellipse cx="152.586" cy="94.4876" rx="2.76937" ry="2.80594" fill="#D1D9E0"/>
<ellipse cx="62.3787" cy="77.4441" rx="2.76937" ry="2.80594" fill="#D1D9E0"/>
<ellipse cx="152.586" cy="77.4441" rx="2.76937" ry="2.80594" fill="#D1D9E0"/>
<ellipse cx="62.3787" cy="111.533" rx="2.76937" ry="2.80594" fill="#D1D9E0"/>
<ellipse cx="152.586" cy="111.533" rx="2.76937" ry="2.80594" fill="#D1D9E0"/>
<ellipse cx="77.6767" cy="60.3994" rx="3.165" ry="2.80594" fill="#D1D9E0"/>
<ellipse cx="167.888" cy="60.3994" rx="3.16496" ry="2.80594" fill="#D1D9E0"/>
<ellipse cx="77.6767" cy="94.4876" rx="3.165" ry="2.80594" fill="#D1D9E0"/>
<ellipse cx="167.888" cy="94.4876" rx="3.16496" ry="2.80594" fill="#D1D9E0"/>
<ellipse cx="77.6767" cy="77.4429" rx="3.165" ry="2.80594" fill="#D1D9E0"/>
<ellipse cx="167.888" cy="77.4429" rx="3.16496" ry="2.80594" fill="#D1D9E0"/>
<ellipse cx="77.6767" cy="111.533" rx="3.165" ry="2.80594" fill="#D1D9E0"/>
<ellipse cx="167.888" cy="111.533" rx="3.16496" ry="2.80594" fill="#D1D9E0"/>
<ellipse cx="2.76935" cy="24.8518" rx="2.76935" ry="2.80594" fill="#D1D9E0"/>
<ellipse cx="92.9764" cy="24.8533" rx="2.76933" ry="2.80594" fill="#D1D9E0"/>
<ellipse cx="2.76935" cy="7.8074" rx="2.76935" ry="2.80594" fill="#D1D9E0"/>
<ellipse cx="92.9764" cy="7.80863" rx="2.76933" ry="2.80594" fill="#D1D9E0"/>
<ellipse cx="2.76935" cy="41.896" rx="2.76935" ry="2.80594" fill="#D1D9E0"/>
<ellipse cx="92.9764" cy="41.8977" rx="2.76933" ry="2.80594" fill="#D1D9E0"/>
<ellipse cx="17.6717" cy="24.8533" rx="2.76935" ry="2.80594" fill="#D1D9E0"/>
<ellipse cx="107.879" cy="24.8533" rx="2.76937" ry="2.80594" fill="#D1D9E0"/>
<ellipse cx="17.6717" cy="7.80863" rx="2.76935" ry="2.80594" fill="#D1D9E0"/>
<ellipse cx="107.879" cy="7.80863" rx="2.76937" ry="2.80594" fill="#D1D9E0"/>
<ellipse cx="17.6717" cy="41.8977" rx="2.76935" ry="2.80594" fill="#D1D9E0"/>
<ellipse cx="107.879" cy="41.8977" rx="2.76937" ry="2.80594" fill="#D1D9E0"/>
<ellipse cx="32.5741" cy="24.8533" rx="2.76937" ry="2.80594" fill="#D1D9E0"/>
<ellipse cx="122.781" cy="24.8533" rx="2.76937" ry="2.80594" fill="#D1D9E0"/>
<ellipse cx="32.5741" cy="7.80863" rx="2.76937" ry="2.80594" fill="#D1D9E0"/>
<ellipse cx="122.781" cy="7.80863" rx="2.76937" ry="2.80594" fill="#D1D9E0"/>
<ellipse cx="32.5741" cy="41.8977" rx="2.76937" ry="2.80594" fill="#D1D9E0"/>
<ellipse cx="122.781" cy="41.8977" rx="2.76937" ry="2.80594" fill="#D1D9E0"/>
<ellipse cx="47.4764" cy="24.8533" rx="2.76933" ry="2.80594" fill="#D1D9E0"/>
<ellipse cx="137.687" cy="24.8533" rx="2.76937" ry="2.80594" fill="#D1D9E0"/>
<ellipse cx="47.4764" cy="7.80863" rx="2.76933" ry="2.80594" fill="#D1D9E0"/>
<ellipse cx="137.687" cy="7.80863" rx="2.76937" ry="2.80594" fill="#D1D9E0"/>
<ellipse cx="47.4764" cy="41.8977" rx="2.76933" ry="2.80594" fill="#D1D9E0"/>
<ellipse cx="137.687" cy="41.8977" rx="2.76937" ry="2.80594" fill="#D1D9E0"/>
<ellipse cx="62.3787" cy="24.8533" rx="2.76937" ry="2.80594" fill="#D1D9E0"/>
<ellipse cx="152.586" cy="24.8533" rx="2.76937" ry="2.80594" fill="#D1D9E0"/>
<ellipse cx="62.3787" cy="7.80863" rx="2.76937" ry="2.80594" fill="#D1D9E0"/>
<ellipse cx="152.586" cy="7.80863" rx="2.76937" ry="2.80594" fill="#D1D9E0"/>
<ellipse cx="62.3787" cy="41.8977" rx="2.76937" ry="2.80594" fill="#D1D9E0"/>
<ellipse cx="152.586" cy="41.8977" rx="2.76937" ry="2.80594" fill="#D1D9E0"/>
<ellipse cx="77.6767" cy="24.8533" rx="3.165" ry="2.80594" fill="#D1D9E0"/>
<ellipse cx="167.888" cy="24.8533" rx="3.16496" ry="2.80594" fill="#D1D9E0"/>
<ellipse cx="77.6767" cy="7.80863" rx="3.165" ry="2.80594" fill="#D1D9E0"/>
<ellipse cx="167.888" cy="7.80863" rx="3.16496" ry="2.80594" fill="#D1D9E0"/>
<ellipse cx="77.6767" cy="41.8977" rx="3.165" ry="2.80594" fill="#D1D9E0"/>
<ellipse cx="167.888" cy="41.8977" rx="3.16496" ry="2.80594" fill="#D1D9E0"/>
<ellipse cx="185.762" cy="60.3992" rx="2.76937" ry="2.80594" fill="#D1D9E0"/>
<ellipse cx="185.762" cy="94.4876" rx="2.76937" ry="2.80594" fill="#D1D9E0"/>
<ellipse cx="185.762" cy="77.4436" rx="2.76937" ry="2.80594" fill="#D1D9E0"/>
<ellipse cx="185.762" cy="111.533" rx="2.76937" ry="2.80594" fill="#D1D9E0"/>
<ellipse cx="200.664" cy="60.3994" rx="2.76933" ry="2.80594" fill="#D1D9E0"/>
<ellipse cx="200.664" cy="94.4888" rx="2.76933" ry="2.80594" fill="#D1D9E0"/>
<ellipse cx="200.664" cy="77.4444" rx="2.76933" ry="2.80594" fill="#D1D9E0"/>
<ellipse cx="200.664" cy="111.533" rx="2.76933" ry="2.80594" fill="#D1D9E0"/>
<ellipse cx="215.566" cy="60.3994" rx="2.76933" ry="2.80594" fill="#D1D9E0"/>
<ellipse cx="215.566" cy="94.4888" rx="2.76933" ry="2.80594" fill="#D1D9E0"/>
<ellipse cx="215.566" cy="77.4444" rx="2.76933" ry="2.80594" fill="#D1D9E0"/>
<ellipse cx="215.566" cy="111.533" rx="2.76933" ry="2.80594" fill="#D1D9E0"/>
<ellipse cx="230.469" cy="60.3994" rx="2.76937" ry="2.80594" fill="#D1D9E0"/>
<ellipse cx="230.469" cy="94.4883" rx="2.76937" ry="2.80594" fill="#D1D9E0"/>
<ellipse cx="230.469" cy="77.4444" rx="2.76937" ry="2.80594" fill="#D1D9E0"/>
<ellipse cx="230.469" cy="111.533" rx="2.76937" ry="2.80594" fill="#D1D9E0"/>
<ellipse cx="245.371" cy="60.399" rx="2.76937" ry="2.80594" fill="#D1D9E0"/>
<ellipse cx="245.371" cy="94.4883" rx="2.76937" ry="2.80594" fill="#D1D9E0"/>
<ellipse cx="245.371" cy="77.4444" rx="2.76937" ry="2.80594" fill="#D1D9E0"/>
<ellipse cx="245.371" cy="111.533" rx="2.76937" ry="2.80594" fill="#D1D9E0"/>
<ellipse cx="185.762" cy="24.8514" rx="2.76937" ry="2.80594" fill="#D1D9E0"/>
<ellipse cx="185.762" cy="7.80594" rx="2.76937" ry="2.80594" fill="#D1D9E0"/>
<ellipse cx="185.762" cy="41.8958" rx="2.76937" ry="2.80594" fill="#D1D9E0"/>
<ellipse cx="200.664" cy="24.8518" rx="2.76933" ry="2.80594" fill="#D1D9E0"/>
<ellipse cx="200.664" cy="7.8074" rx="2.76933" ry="2.80594" fill="#D1D9E0"/>
<ellipse cx="200.664" cy="41.8963" rx="2.76933" ry="2.80594" fill="#D1D9E0"/>
<ellipse cx="215.566" cy="24.8518" rx="2.76933" ry="2.80594" fill="#D1D9E0"/>
<ellipse cx="215.566" cy="7.8074" rx="2.76933" ry="2.80594" fill="#D1D9E0"/>
<ellipse cx="215.566" cy="41.8963" rx="2.76937" ry="2.80594" fill="#D1D9E0"/>
<ellipse cx="230.469" cy="24.8518" rx="2.76933" ry="2.80594" fill="#D1D9E0"/>
<ellipse cx="230.469" cy="7.8074" rx="2.76933" ry="2.80594" fill="#D1D9E0"/>
<ellipse cx="230.469" cy="41.8963" rx="2.76933" ry="2.80594" fill="#D1D9E0"/>
<ellipse cx="245.371" cy="24.8518" rx="2.76937" ry="2.80594" fill="#D1D9E0"/>
<ellipse cx="245.371" cy="7.8074" rx="2.76937" ry="2.80594" fill="#D1D9E0"/>
<ellipse cx="245.371" cy="41.8963" rx="2.76937" ry="2.80594" fill="#D1D9E0"/>
</mask>
<g mask="url(#mask0)">
<circle cx="125.333" cy="124.666" r="125.333" transform="rotate(-90 125.333 124.666)" fill="url(#paint0_linear)" fill-opacity="0.2"/>
</g>
<path d="M23 35.5C23 44.9152 26.7402 53.9448 33.3977 60.6023C40.0553 67.2598 49.0848 71 58.5 71C67.9152 71 76.9447 67.2598 83.6023 60.6023C90.2598 53.9448 94 44.9152 94 35.5L58.5 35.5L23 35.5Z" fill="#DE6603"/>
<defs>
<linearGradient id="paint0_linear" x1="125.333" y1="-0.667404" x2="125.333" y2="250" gradientUnits="userSpaceOnUse">
<stop stop-color="#7148BD"/>
<stop offset="1" stop-color="#1999E3" stop-opacity="0"/>
</linearGradient>
</defs>
</svg>
