<svg width="246" height="249" viewBox="0 0 246 249" fill="none" xmlns="http://www.w3.org/2000/svg">
<mask id="mask0" mask-type="alpha" maskUnits="userSpaceOnUse" x="1" y="0" width="246" height="249">
<ellipse cx="192.06" cy="245.375" rx="2.76935" ry="2.80594" transform="rotate(-90 192.06 245.375)" fill="#D1D9E0"/>
<ellipse cx="192.06" cy="155.167" rx="2.76933" ry="2.80594" transform="rotate(-90 192.06 155.167)" fill="#D1D9E0"/>
<ellipse cx="226.15" cy="245.374" rx="2.76935" ry="2.80594" transform="rotate(-90 226.15 245.374)" fill="#D1D9E0"/>
<ellipse cx="226.15" cy="155.167" rx="2.76933" ry="2.80594" transform="rotate(-90 226.15 155.167)" fill="#D1D9E0"/>
<ellipse cx="209.107" cy="245.374" rx="2.76935" ry="2.80594" transform="rotate(-90 209.107 245.374)" fill="#D1D9E0"/>
<ellipse cx="209.107" cy="155.167" rx="2.76933" ry="2.80594" transform="rotate(-90 209.107 155.167)" fill="#D1D9E0"/>
<ellipse cx="243.193" cy="245.374" rx="2.76935" ry="2.80594" transform="rotate(-90 243.193 245.374)" fill="#D1D9E0"/>
<ellipse cx="243.197" cy="155.167" rx="2.76933" ry="2.80594" transform="rotate(-90 243.197 155.167)" fill="#D1D9E0"/>
<ellipse cx="192.064" cy="230.472" rx="2.76933" ry="2.80594" transform="rotate(-90 192.064 230.472)" fill="#D1D9E0"/>
<ellipse cx="192.064" cy="140.264" rx="2.76937" ry="2.80594" transform="rotate(-90 192.064 140.264)" fill="#D1D9E0"/>
<ellipse cx="226.15" cy="230.472" rx="2.76933" ry="2.80594" transform="rotate(-90 226.15 230.472)" fill="#D1D9E0"/>
<ellipse cx="226.15" cy="140.264" rx="2.76937" ry="2.80594" transform="rotate(-90 226.15 140.264)" fill="#D1D9E0"/>
<ellipse cx="209.107" cy="230.472" rx="2.76933" ry="2.80594" transform="rotate(-90 209.107 230.472)" fill="#D1D9E0"/>
<ellipse cx="209.107" cy="140.264" rx="2.76937" ry="2.80594" transform="rotate(-90 209.107 140.264)" fill="#D1D9E0"/>
<ellipse cx="243.197" cy="230.472" rx="2.76933" ry="2.80594" transform="rotate(-90 243.197 230.472)" fill="#D1D9E0"/>
<ellipse cx="243.197" cy="140.264" rx="2.76937" ry="2.80594" transform="rotate(-90 243.197 140.264)" fill="#D1D9E0"/>
<ellipse cx="192.06" cy="215.57" rx="2.76937" ry="2.80594" transform="rotate(-90 192.06 215.57)" fill="#D1D9E0"/>
<ellipse cx="192.06" cy="125.361" rx="2.76937" ry="2.80594" transform="rotate(-90 192.06 125.361)" fill="#D1D9E0"/>
<ellipse cx="226.15" cy="215.57" rx="2.76937" ry="2.80594" transform="rotate(-90 226.15 215.57)" fill="#D1D9E0"/>
<ellipse cx="226.15" cy="125.361" rx="2.76937" ry="2.80594" transform="rotate(-90 226.15 125.361)" fill="#D1D9E0"/>
<ellipse cx="209.107" cy="215.57" rx="2.76937" ry="2.80594" transform="rotate(-90 209.107 215.57)" fill="#D1D9E0"/>
<ellipse cx="209.107" cy="125.361" rx="2.76937" ry="2.80594" transform="rotate(-90 209.107 125.361)" fill="#D1D9E0"/>
<ellipse cx="243.197" cy="215.57" rx="2.76937" ry="2.80594" transform="rotate(-90 243.197 215.57)" fill="#D1D9E0"/>
<ellipse cx="243.197" cy="125.361" rx="2.76937" ry="2.80594" transform="rotate(-90 243.197 125.361)" fill="#D1D9E0"/>
<ellipse cx="192.064" cy="200.667" rx="2.76933" ry="2.80594" transform="rotate(-90 192.064 200.667)" fill="#D1D9E0"/>
<ellipse cx="192.064" cy="110.458" rx="2.76937" ry="2.80594" transform="rotate(-90 192.064 110.458)" fill="#D1D9E0"/>
<ellipse cx="226.15" cy="200.667" rx="2.76933" ry="2.80594" transform="rotate(-90 226.15 200.667)" fill="#D1D9E0"/>
<ellipse cx="226.15" cy="110.458" rx="2.76937" ry="2.80594" transform="rotate(-90 226.15 110.458)" fill="#D1D9E0"/>
<ellipse cx="209.107" cy="200.667" rx="2.76933" ry="2.80594" transform="rotate(-90 209.107 200.667)" fill="#D1D9E0"/>
<ellipse cx="209.107" cy="110.458" rx="2.76937" ry="2.80594" transform="rotate(-90 209.107 110.458)" fill="#D1D9E0"/>
<ellipse cx="243.197" cy="200.667" rx="2.76933" ry="2.80594" transform="rotate(-90 243.197 200.667)" fill="#D1D9E0"/>
<ellipse cx="243.197" cy="110.458" rx="2.76937" ry="2.80594" transform="rotate(-90 243.197 110.458)" fill="#D1D9E0"/>
<ellipse cx="192.06" cy="185.764" rx="2.76937" ry="2.80594" transform="rotate(-90 192.06 185.764)" fill="#D1D9E0"/>
<ellipse cx="192.06" cy="95.5563" rx="2.76937" ry="2.80594" transform="rotate(-90 192.06 95.5563)" fill="#D1D9E0"/>
<ellipse cx="226.15" cy="185.764" rx="2.76937" ry="2.80594" transform="rotate(-90 226.15 185.764)" fill="#D1D9E0"/>
<ellipse cx="226.15" cy="95.5563" rx="2.76937" ry="2.80594" transform="rotate(-90 226.15 95.5563)" fill="#D1D9E0"/>
<ellipse cx="209.107" cy="185.764" rx="2.76937" ry="2.80594" transform="rotate(-90 209.107 185.764)" fill="#D1D9E0"/>
<ellipse cx="209.107" cy="95.5563" rx="2.76937" ry="2.80594" transform="rotate(-90 209.107 95.5563)" fill="#D1D9E0"/>
<ellipse cx="243.197" cy="185.764" rx="2.76937" ry="2.80594" transform="rotate(-90 243.197 185.764)" fill="#D1D9E0"/>
<ellipse cx="243.197" cy="95.5563" rx="2.76937" ry="2.80594" transform="rotate(-90 243.197 95.5563)" fill="#D1D9E0"/>
<ellipse cx="192.064" cy="170.466" rx="3.165" ry="2.80594" transform="rotate(-90 192.064 170.466)" fill="#D1D9E0"/>
<ellipse cx="192.064" cy="80.2579" rx="3.16496" ry="2.80594" transform="rotate(-90 192.064 80.2579)" fill="#D1D9E0"/>
<ellipse cx="226.15" cy="170.466" rx="3.165" ry="2.80594" transform="rotate(-90 226.15 170.466)" fill="#D1D9E0"/>
<ellipse cx="226.15" cy="80.2579" rx="3.16496" ry="2.80594" transform="rotate(-90 226.15 80.2579)" fill="#D1D9E0"/>
<ellipse cx="209.107" cy="170.466" rx="3.165" ry="2.80594" transform="rotate(-90 209.107 170.466)" fill="#D1D9E0"/>
<ellipse cx="209.107" cy="80.2579" rx="3.16496" ry="2.80594" transform="rotate(-90 209.107 80.2579)" fill="#D1D9E0"/>
<ellipse cx="243.197" cy="170.466" rx="3.165" ry="2.80594" transform="rotate(-90 243.197 170.466)" fill="#D1D9E0"/>
<ellipse cx="243.197" cy="80.2579" rx="3.16496" ry="2.80594" transform="rotate(-90 243.197 80.2579)" fill="#D1D9E0"/>
<ellipse cx="122.423" cy="245.374" rx="2.76935" ry="2.80594" transform="rotate(-90 122.423 245.374)" fill="#D1D9E0"/>
<ellipse cx="122.423" cy="155.167" rx="2.76933" ry="2.80594" transform="rotate(-90 122.423 155.167)" fill="#D1D9E0"/>
<ellipse cx="156.513" cy="245.374" rx="2.76935" ry="2.80594" transform="rotate(-90 156.513 245.374)" fill="#D1D9E0"/>
<ellipse cx="156.513" cy="155.167" rx="2.76933" ry="2.80594" transform="rotate(-90 156.513 155.167)" fill="#D1D9E0"/>
<ellipse cx="139.466" cy="245.374" rx="2.76935" ry="2.80594" transform="rotate(-90 139.466 245.374)" fill="#D1D9E0"/>
<ellipse cx="139.47" cy="155.167" rx="2.76933" ry="2.80594" transform="rotate(-90 139.47 155.167)" fill="#D1D9E0"/>
<ellipse cx="173.556" cy="245.374" rx="2.76935" ry="2.80594" transform="rotate(-90 173.556 245.374)" fill="#D1D9E0"/>
<ellipse cx="173.556" cy="155.167" rx="2.76933" ry="2.80594" transform="rotate(-90 173.556 155.167)" fill="#D1D9E0"/>
<ellipse cx="122.423" cy="230.471" rx="2.76933" ry="2.80594" transform="rotate(-90 122.423 230.471)" fill="#D1D9E0"/>
<ellipse cx="122.423" cy="140.264" rx="2.76937" ry="2.80594" transform="rotate(-90 122.423 140.264)" fill="#D1D9E0"/>
<ellipse cx="156.513" cy="230.472" rx="2.76933" ry="2.80594" transform="rotate(-90 156.513 230.472)" fill="#D1D9E0"/>
<ellipse cx="156.513" cy="140.264" rx="2.76937" ry="2.80594" transform="rotate(-90 156.513 140.264)" fill="#D1D9E0"/>
<ellipse cx="139.47" cy="230.472" rx="2.76933" ry="2.80594" transform="rotate(-90 139.47 230.472)" fill="#D1D9E0"/>
<ellipse cx="139.47" cy="140.264" rx="2.76937" ry="2.80594" transform="rotate(-90 139.47 140.264)" fill="#D1D9E0"/>
<ellipse cx="173.556" cy="230.472" rx="2.76933" ry="2.80594" transform="rotate(-90 173.556 230.472)" fill="#D1D9E0"/>
<ellipse cx="173.556" cy="140.264" rx="2.76937" ry="2.80594" transform="rotate(-90 173.556 140.264)" fill="#D1D9E0"/>
<ellipse cx="122.423" cy="215.569" rx="2.76937" ry="2.80594" transform="rotate(-90 122.423 215.569)" fill="#D1D9E0"/>
<ellipse cx="122.423" cy="125.361" rx="2.76937" ry="2.80594" transform="rotate(-90 122.423 125.361)" fill="#D1D9E0"/>
<ellipse cx="156.513" cy="215.569" rx="2.76937" ry="2.80594" transform="rotate(-90 156.513 215.569)" fill="#D1D9E0"/>
<ellipse cx="156.513" cy="125.361" rx="2.76937" ry="2.80594" transform="rotate(-90 156.513 125.361)" fill="#D1D9E0"/>
<ellipse cx="139.47" cy="215.569" rx="2.76937" ry="2.80594" transform="rotate(-90 139.47 215.569)" fill="#D1D9E0"/>
<ellipse cx="139.47" cy="125.361" rx="2.76937" ry="2.80594" transform="rotate(-90 139.47 125.361)" fill="#D1D9E0"/>
<ellipse cx="173.556" cy="215.569" rx="2.76937" ry="2.80594" transform="rotate(-90 173.556 215.569)" fill="#D1D9E0"/>
<ellipse cx="173.556" cy="125.361" rx="2.76937" ry="2.80594" transform="rotate(-90 173.556 125.361)" fill="#D1D9E0"/>
<ellipse cx="122.423" cy="200.666" rx="2.76933" ry="2.80594" transform="rotate(-90 122.423 200.666)" fill="#D1D9E0"/>
<ellipse cx="122.423" cy="110.458" rx="2.76937" ry="2.80594" transform="rotate(-90 122.423 110.458)" fill="#D1D9E0"/>
<ellipse cx="156.513" cy="200.666" rx="2.76933" ry="2.80594" transform="rotate(-90 156.513 200.666)" fill="#D1D9E0"/>
<ellipse cx="156.513" cy="110.458" rx="2.76937" ry="2.80594" transform="rotate(-90 156.513 110.458)" fill="#D1D9E0"/>
<ellipse cx="139.47" cy="200.666" rx="2.76933" ry="2.80594" transform="rotate(-90 139.47 200.666)" fill="#D1D9E0"/>
<ellipse cx="139.47" cy="110.458" rx="2.76937" ry="2.80594" transform="rotate(-90 139.47 110.458)" fill="#D1D9E0"/>
<ellipse cx="173.556" cy="200.666" rx="2.76933" ry="2.80594" transform="rotate(-90 173.556 200.666)" fill="#D1D9E0"/>
<ellipse cx="173.556" cy="110.458" rx="2.76937" ry="2.80594" transform="rotate(-90 173.556 110.458)" fill="#D1D9E0"/>
<ellipse cx="122.423" cy="185.764" rx="2.76937" ry="2.80594" transform="rotate(-90 122.423 185.764)" fill="#D1D9E0"/>
<ellipse cx="122.423" cy="95.5553" rx="2.76937" ry="2.80594" transform="rotate(-90 122.423 95.5553)" fill="#D1D9E0"/>
<ellipse cx="156.513" cy="185.764" rx="2.76937" ry="2.80594" transform="rotate(-90 156.513 185.764)" fill="#D1D9E0"/>
<ellipse cx="156.513" cy="95.5558" rx="2.76937" ry="2.80594" transform="rotate(-90 156.513 95.5558)" fill="#D1D9E0"/>
<ellipse cx="139.47" cy="185.764" rx="2.76937" ry="2.80594" transform="rotate(-90 139.47 185.764)" fill="#D1D9E0"/>
<ellipse cx="139.47" cy="95.5558" rx="2.76937" ry="2.80594" transform="rotate(-90 139.47 95.5558)" fill="#D1D9E0"/>
<ellipse cx="173.556" cy="185.764" rx="2.76937" ry="2.80594" transform="rotate(-90 173.556 185.764)" fill="#D1D9E0"/>
<ellipse cx="173.556" cy="95.5558" rx="2.76937" ry="2.80594" transform="rotate(-90 173.556 95.5558)" fill="#D1D9E0"/>
<ellipse cx="122.423" cy="170.466" rx="3.165" ry="2.80594" transform="rotate(-90 122.423 170.466)" fill="#D1D9E0"/>
<ellipse cx="122.423" cy="80.2574" rx="3.16496" ry="2.80594" transform="rotate(-90 122.423 80.2574)" fill="#D1D9E0"/>
<ellipse cx="156.513" cy="170.465" rx="3.165" ry="2.80594" transform="rotate(-90 156.513 170.465)" fill="#D1D9E0"/>
<ellipse cx="156.513" cy="80.2574" rx="3.16496" ry="2.80594" transform="rotate(-90 156.513 80.2574)" fill="#D1D9E0"/>
<ellipse cx="139.47" cy="170.466" rx="3.165" ry="2.80594" transform="rotate(-90 139.47 170.466)" fill="#D1D9E0"/>
<ellipse cx="139.47" cy="80.2574" rx="3.16496" ry="2.80594" transform="rotate(-90 139.47 80.2574)" fill="#D1D9E0"/>
<ellipse cx="173.556" cy="170.465" rx="3.165" ry="2.80594" transform="rotate(-90 173.556 170.465)" fill="#D1D9E0"/>
<ellipse cx="173.556" cy="80.2574" rx="3.16496" ry="2.80594" transform="rotate(-90 173.556 80.2574)" fill="#D1D9E0"/>
<ellipse cx="192.064" cy="62.38" rx="2.76937" ry="2.80594" transform="rotate(-90 192.064 62.38)" fill="#D1D9E0"/>
<ellipse cx="226.15" cy="62.38" rx="2.76937" ry="2.80594" transform="rotate(-90 226.15 62.38)" fill="#D1D9E0"/>
<ellipse cx="209.103" cy="62.38" rx="2.76937" ry="2.80594" transform="rotate(-90 209.103 62.38)" fill="#D1D9E0"/>
<ellipse cx="243.193" cy="62.38" rx="2.76937" ry="2.80594" transform="rotate(-90 243.193 62.38)" fill="#D1D9E0"/>
<ellipse cx="192.06" cy="47.4773" rx="2.76933" ry="2.80594" transform="rotate(-90 192.06 47.4773)" fill="#D1D9E0"/>
<ellipse cx="226.15" cy="47.4773" rx="2.76933" ry="2.80594" transform="rotate(-90 226.15 47.4773)" fill="#D1D9E0"/>
<ellipse cx="209.107" cy="47.4773" rx="2.76933" ry="2.80594" transform="rotate(-90 209.107 47.4773)" fill="#D1D9E0"/>
<ellipse cx="243.193" cy="47.4773" rx="2.76933" ry="2.80594" transform="rotate(-90 243.193 47.4773)" fill="#D1D9E0"/>
<ellipse cx="192.06" cy="32.5754" rx="2.76933" ry="2.80594" transform="rotate(-90 192.06 32.5754)" fill="#D1D9E0"/>
<ellipse cx="226.15" cy="32.5754" rx="2.76933" ry="2.80594" transform="rotate(-90 226.15 32.5754)" fill="#D1D9E0"/>
<ellipse cx="209.103" cy="32.5754" rx="2.76933" ry="2.80594" transform="rotate(-90 209.103 32.5754)" fill="#D1D9E0"/>
<ellipse cx="243.193" cy="32.5754" rx="2.76933" ry="2.80594" transform="rotate(-90 243.193 32.5754)" fill="#D1D9E0"/>
<ellipse cx="192.06" cy="17.672" rx="2.76937" ry="2.80594" transform="rotate(-90 192.06 17.672)" fill="#D1D9E0"/>
<ellipse cx="226.15" cy="17.672" rx="2.76937" ry="2.80594" transform="rotate(-90 226.15 17.672)" fill="#D1D9E0"/>
<ellipse cx="209.107" cy="17.672" rx="2.76937" ry="2.80594" transform="rotate(-90 209.107 17.672)" fill="#D1D9E0"/>
<ellipse cx="243.193" cy="17.672" rx="2.76937" ry="2.80594" transform="rotate(-90 243.193 17.672)" fill="#D1D9E0"/>
<ellipse cx="192.06" cy="2.76921" rx="2.76937" ry="2.80594" transform="rotate(-90 192.06 2.76921)" fill="#D1D9E0"/>
<ellipse cx="226.15" cy="2.76921" rx="2.76937" ry="2.80594" transform="rotate(-90 226.15 2.76921)" fill="#D1D9E0"/>
<ellipse cx="209.103" cy="2.76921" rx="2.76937" ry="2.80594" transform="rotate(-90 209.103 2.76921)" fill="#D1D9E0"/>
<ellipse cx="243.193" cy="2.76921" rx="2.76937" ry="2.80594" transform="rotate(-90 243.193 2.76921)" fill="#D1D9E0"/>
<ellipse cx="122.423" cy="62.3786" rx="2.76937" ry="2.80594" transform="rotate(-90 122.423 62.3786)" fill="#D1D9E0"/>
<ellipse cx="156.513" cy="62.3796" rx="2.76937" ry="2.80594" transform="rotate(-90 156.513 62.3796)" fill="#D1D9E0"/>
<ellipse cx="139.466" cy="62.3796" rx="2.76937" ry="2.80594" transform="rotate(-90 139.466 62.3796)" fill="#D1D9E0"/>
<ellipse cx="173.556" cy="62.3796" rx="2.76937" ry="2.80594" transform="rotate(-90 173.556 62.3796)" fill="#D1D9E0"/>
<ellipse cx="122.423" cy="47.4773" rx="2.76933" ry="2.80594" transform="rotate(-90 122.423 47.4773)" fill="#D1D9E0"/>
<ellipse cx="156.513" cy="47.4773" rx="2.76933" ry="2.80594" transform="rotate(-90 156.513 47.4773)" fill="#D1D9E0"/>
<ellipse cx="139.47" cy="47.4773" rx="2.76933" ry="2.80594" transform="rotate(-90 139.47 47.4773)" fill="#D1D9E0"/>
<ellipse cx="173.556" cy="47.4773" rx="2.76933" ry="2.80594" transform="rotate(-90 173.556 47.4773)" fill="#D1D9E0"/>
<ellipse cx="122.423" cy="32.5749" rx="2.76933" ry="2.80594" transform="rotate(-90 122.423 32.5749)" fill="#D1D9E0"/>
<ellipse cx="156.513" cy="32.5749" rx="2.76933" ry="2.80594" transform="rotate(-90 156.513 32.5749)" fill="#D1D9E0"/>
<ellipse cx="139.466" cy="32.5749" rx="2.76933" ry="2.80594" transform="rotate(-90 139.466 32.5749)" fill="#D1D9E0"/>
<ellipse cx="173.556" cy="32.5749" rx="2.76933" ry="2.80594" transform="rotate(-90 173.556 32.5749)" fill="#D1D9E0"/>
<ellipse cx="122.423" cy="17.6716" rx="2.76933" ry="2.80594" transform="rotate(-90 122.423 17.6716)" fill="#D1D9E0"/>
<ellipse cx="156.513" cy="17.6715" rx="2.76937" ry="2.80594" transform="rotate(-90 156.513 17.6715)" fill="#D1D9E0"/>
<ellipse cx="139.47" cy="17.6716" rx="2.76933" ry="2.80594" transform="rotate(-90 139.47 17.6716)" fill="#D1D9E0"/>
<ellipse cx="173.556" cy="17.6715" rx="2.76937" ry="2.80594" transform="rotate(-90 173.556 17.6715)" fill="#D1D9E0"/>
<ellipse cx="122.423" cy="2.76921" rx="2.76937" ry="2.80594" transform="rotate(-90 122.423 2.76921)" fill="#D1D9E0"/>
<ellipse cx="156.513" cy="2.76921" rx="2.76937" ry="2.80594" transform="rotate(-90 156.513 2.76921)" fill="#D1D9E0"/>
<ellipse cx="139.466" cy="2.76921" rx="2.76937" ry="2.80594" transform="rotate(-90 139.466 2.76921)" fill="#D1D9E0"/>
<ellipse cx="173.556" cy="2.76921" rx="2.76937" ry="2.80594" transform="rotate(-90 173.556 2.76921)" fill="#D1D9E0"/>
<ellipse cx="56.3997" cy="245.374" rx="2.76935" ry="2.80594" transform="rotate(-90 56.3997 245.374)" fill="#D1D9E0"/>
<ellipse cx="56.3997" cy="155.167" rx="2.76933" ry="2.80594" transform="rotate(-90 56.3997 155.167)" fill="#D1D9E0"/>
<ellipse cx="90.4895" cy="245.374" rx="2.76935" ry="2.80594" transform="rotate(-90 90.4895 245.374)" fill="#D1D9E0"/>
<ellipse cx="90.4895" cy="155.167" rx="2.76933" ry="2.80594" transform="rotate(-90 90.4895 155.167)" fill="#D1D9E0"/>
<ellipse cx="73.4466" cy="245.374" rx="2.76935" ry="2.80594" transform="rotate(-90 73.4466 245.374)" fill="#D1D9E0"/>
<ellipse cx="73.4466" cy="155.167" rx="2.76933" ry="2.80594" transform="rotate(-90 73.4466 155.167)" fill="#D1D9E0"/>
<ellipse cx="107.533" cy="245.374" rx="2.76935" ry="2.80594" transform="rotate(-90 107.533 245.374)" fill="#D1D9E0"/>
<ellipse cx="107.536" cy="155.167" rx="2.76933" ry="2.80594" transform="rotate(-90 107.536 155.167)" fill="#D1D9E0"/>
<ellipse cx="56.4036" cy="230.471" rx="2.76935" ry="2.80594" transform="rotate(-90 56.4036 230.471)" fill="#D1D9E0"/>
<ellipse cx="56.4036" cy="140.264" rx="2.76937" ry="2.80594" transform="rotate(-90 56.4036 140.264)" fill="#D1D9E0"/>
<ellipse cx="90.4895" cy="230.472" rx="2.76935" ry="2.80594" transform="rotate(-90 90.4895 230.472)" fill="#D1D9E0"/>
<ellipse cx="90.4895" cy="140.264" rx="2.76937" ry="2.80594" transform="rotate(-90 90.4895 140.264)" fill="#D1D9E0"/>
<ellipse cx="73.4466" cy="230.471" rx="2.76935" ry="2.80594" transform="rotate(-90 73.4466 230.471)" fill="#D1D9E0"/>
<ellipse cx="73.4466" cy="140.264" rx="2.76937" ry="2.80594" transform="rotate(-90 73.4466 140.264)" fill="#D1D9E0"/>
<ellipse cx="107.536" cy="230.472" rx="2.76935" ry="2.80594" transform="rotate(-90 107.536 230.472)" fill="#D1D9E0"/>
<ellipse cx="107.536" cy="140.264" rx="2.76937" ry="2.80594" transform="rotate(-90 107.536 140.264)" fill="#D1D9E0"/>
<ellipse cx="56.3997" cy="215.569" rx="2.76937" ry="2.80594" transform="rotate(-90 56.3997 215.569)" fill="#D1D9E0"/>
<ellipse cx="56.3997" cy="125.361" rx="2.76937" ry="2.80594" transform="rotate(-90 56.3997 125.361)" fill="#D1D9E0"/>
<ellipse cx="90.4895" cy="215.569" rx="2.76937" ry="2.80594" transform="rotate(-90 90.4895 215.569)" fill="#D1D9E0"/>
<ellipse cx="90.4895" cy="125.361" rx="2.76937" ry="2.80594" transform="rotate(-90 90.4895 125.361)" fill="#D1D9E0"/>
<ellipse cx="73.4466" cy="215.569" rx="2.76937" ry="2.80594" transform="rotate(-90 73.4466 215.569)" fill="#D1D9E0"/>
<ellipse cx="73.4466" cy="125.361" rx="2.76937" ry="2.80594" transform="rotate(-90 73.4466 125.361)" fill="#D1D9E0"/>
<ellipse cx="107.536" cy="215.569" rx="2.76937" ry="2.80594" transform="rotate(-90 107.536 215.569)" fill="#D1D9E0"/>
<ellipse cx="107.536" cy="125.361" rx="2.76937" ry="2.80594" transform="rotate(-90 107.536 125.361)" fill="#D1D9E0"/>
<ellipse cx="56.4036" cy="200.666" rx="2.76933" ry="2.80594" transform="rotate(-90 56.4036 200.666)" fill="#D1D9E0"/>
<ellipse cx="56.4036" cy="110.458" rx="2.76937" ry="2.80594" transform="rotate(-90 56.4036 110.458)" fill="#D1D9E0"/>
<ellipse cx="90.4895" cy="200.666" rx="2.76933" ry="2.80594" transform="rotate(-90 90.4895 200.666)" fill="#D1D9E0"/>
<ellipse cx="90.4895" cy="110.458" rx="2.76937" ry="2.80594" transform="rotate(-90 90.4895 110.458)" fill="#D1D9E0"/>
<ellipse cx="73.4466" cy="200.666" rx="2.76933" ry="2.80594" transform="rotate(-90 73.4466 200.666)" fill="#D1D9E0"/>
<ellipse cx="73.4466" cy="110.458" rx="2.76937" ry="2.80594" transform="rotate(-90 73.4466 110.458)" fill="#D1D9E0"/>
<ellipse cx="107.536" cy="200.666" rx="2.76933" ry="2.80594" transform="rotate(-90 107.536 200.666)" fill="#D1D9E0"/>
<ellipse cx="107.536" cy="110.458" rx="2.76937" ry="2.80594" transform="rotate(-90 107.536 110.458)" fill="#D1D9E0"/>
<ellipse cx="56.3997" cy="185.764" rx="2.76937" ry="2.80594" transform="rotate(-90 56.3997 185.764)" fill="#D1D9E0"/>
<ellipse cx="56.3997" cy="95.5558" rx="2.76937" ry="2.80594" transform="rotate(-90 56.3997 95.5558)" fill="#D1D9E0"/>
<ellipse cx="90.4895" cy="185.764" rx="2.76937" ry="2.80594" transform="rotate(-90 90.4895 185.764)" fill="#D1D9E0"/>
<ellipse cx="90.4895" cy="95.5558" rx="2.76937" ry="2.80594" transform="rotate(-90 90.4895 95.5558)" fill="#D1D9E0"/>
<ellipse cx="73.4466" cy="185.764" rx="2.76937" ry="2.80594" transform="rotate(-90 73.4466 185.764)" fill="#D1D9E0"/>
<ellipse cx="73.4466" cy="95.5558" rx="2.76937" ry="2.80594" transform="rotate(-90 73.4466 95.5558)" fill="#D1D9E0"/>
<ellipse cx="107.536" cy="185.764" rx="2.76937" ry="2.80594" transform="rotate(-90 107.536 185.764)" fill="#D1D9E0"/>
<ellipse cx="107.536" cy="95.5558" rx="2.76937" ry="2.80594" transform="rotate(-90 107.536 95.5558)" fill="#D1D9E0"/>
<ellipse cx="56.4036" cy="170.466" rx="3.165" ry="2.80594" transform="rotate(-90 56.4036 170.466)" fill="#D1D9E0"/>
<ellipse cx="56.4036" cy="80.2574" rx="3.16496" ry="2.80594" transform="rotate(-90 56.4036 80.2574)" fill="#D1D9E0"/>
<ellipse cx="90.4895" cy="170.465" rx="3.165" ry="2.80594" transform="rotate(-90 90.4895 170.465)" fill="#D1D9E0"/>
<ellipse cx="90.4895" cy="80.2574" rx="3.16496" ry="2.80594" transform="rotate(-90 90.4895 80.2574)" fill="#D1D9E0"/>
<ellipse cx="73.4466" cy="170.466" rx="3.165" ry="2.80594" transform="rotate(-90 73.4466 170.466)" fill="#D1D9E0"/>
<ellipse cx="73.4466" cy="80.2574" rx="3.16496" ry="2.80594" transform="rotate(-90 73.4466 80.2574)" fill="#D1D9E0"/>
<ellipse cx="107.536" cy="170.465" rx="3.165" ry="2.80594" transform="rotate(-90 107.536 170.465)" fill="#D1D9E0"/>
<ellipse cx="107.536" cy="80.2574" rx="3.16496" ry="2.80594" transform="rotate(-90 107.536 80.2574)" fill="#D1D9E0"/>
<ellipse cx="20.8489" cy="245.373" rx="2.76935" ry="2.80594" transform="rotate(-90 20.8489 245.373)" fill="#D1D9E0"/>
<ellipse cx="20.8528" cy="155.166" rx="2.76933" ry="2.80594" transform="rotate(-90 20.8528 155.166)" fill="#D1D9E0"/>
<ellipse cx="3.80594" cy="245.374" rx="2.76935" ry="2.80594" transform="rotate(-90 3.80594 245.374)" fill="#D1D9E0"/>
<ellipse cx="3.80594" cy="155.166" rx="2.76933" ry="2.80594" transform="rotate(-90 3.80594 155.166)" fill="#D1D9E0"/>
<ellipse cx="37.8958" cy="245.373" rx="2.76935" ry="2.80594" transform="rotate(-90 37.8958 245.373)" fill="#D1D9E0"/>
<ellipse cx="37.8958" cy="155.166" rx="2.76933" ry="2.80594" transform="rotate(-90 37.8958 155.166)" fill="#D1D9E0"/>
<ellipse cx="20.8528" cy="230.471" rx="2.76935" ry="2.80594" transform="rotate(-90 20.8528 230.471)" fill="#D1D9E0"/>
<ellipse cx="20.8528" cy="140.263" rx="2.76937" ry="2.80594" transform="rotate(-90 20.8528 140.263)" fill="#D1D9E0"/>
<ellipse cx="3.80594" cy="230.471" rx="2.76935" ry="2.80594" transform="rotate(-90 3.80594 230.471)" fill="#D1D9E0"/>
<ellipse cx="3.80594" cy="140.263" rx="2.76937" ry="2.80594" transform="rotate(-90 3.80594 140.263)" fill="#D1D9E0"/>
<ellipse cx="37.8958" cy="230.471" rx="2.76935" ry="2.80594" transform="rotate(-90 37.8958 230.471)" fill="#D1D9E0"/>
<ellipse cx="37.8958" cy="140.263" rx="2.76937" ry="2.80594" transform="rotate(-90 37.8958 140.263)" fill="#D1D9E0"/>
<ellipse cx="20.8528" cy="215.569" rx="2.76937" ry="2.80594" transform="rotate(-90 20.8528 215.569)" fill="#D1D9E0"/>
<ellipse cx="20.8528" cy="125.36" rx="2.76937" ry="2.80594" transform="rotate(-90 20.8528 125.36)" fill="#D1D9E0"/>
<ellipse cx="3.80594" cy="215.569" rx="2.76937" ry="2.80594" transform="rotate(-90 3.80594 215.569)" fill="#D1D9E0"/>
<ellipse cx="3.80594" cy="125.36" rx="2.76937" ry="2.80594" transform="rotate(-90 3.80594 125.36)" fill="#D1D9E0"/>
<ellipse cx="37.8958" cy="215.569" rx="2.76937" ry="2.80594" transform="rotate(-90 37.8958 215.569)" fill="#D1D9E0"/>
<ellipse cx="37.8958" cy="125.36" rx="2.76937" ry="2.80594" transform="rotate(-90 37.8958 125.36)" fill="#D1D9E0"/>
<ellipse cx="20.8528" cy="200.666" rx="2.76933" ry="2.80594" transform="rotate(-90 20.8528 200.666)" fill="#D1D9E0"/>
<ellipse cx="20.8528" cy="110.457" rx="2.76937" ry="2.80594" transform="rotate(-90 20.8528 110.457)" fill="#D1D9E0"/>
<ellipse cx="3.80594" cy="200.666" rx="2.76933" ry="2.80594" transform="rotate(-90 3.80594 200.666)" fill="#D1D9E0"/>
<ellipse cx="3.80594" cy="110.457" rx="2.76937" ry="2.80594" transform="rotate(-90 3.80594 110.457)" fill="#D1D9E0"/>
<ellipse cx="37.8958" cy="200.666" rx="2.76933" ry="2.80594" transform="rotate(-90 37.8958 200.666)" fill="#D1D9E0"/>
<ellipse cx="37.8958" cy="110.457" rx="2.76937" ry="2.80594" transform="rotate(-90 37.8958 110.457)" fill="#D1D9E0"/>
<ellipse cx="20.8528" cy="185.763" rx="2.76937" ry="2.80594" transform="rotate(-90 20.8528 185.763)" fill="#D1D9E0"/>
<ellipse cx="20.8528" cy="95.5553" rx="2.76937" ry="2.80594" transform="rotate(-90 20.8528 95.5553)" fill="#D1D9E0"/>
<ellipse cx="3.80594" cy="185.763" rx="2.76937" ry="2.80594" transform="rotate(-90 3.80594 185.763)" fill="#D1D9E0"/>
<ellipse cx="3.80594" cy="95.5553" rx="2.76937" ry="2.80594" transform="rotate(-90 3.80594 95.5553)" fill="#D1D9E0"/>
<ellipse cx="37.8958" cy="185.763" rx="2.76937" ry="2.80594" transform="rotate(-90 37.8958 185.763)" fill="#D1D9E0"/>
<ellipse cx="37.8958" cy="95.5553" rx="2.76937" ry="2.80594" transform="rotate(-90 37.8958 95.5553)" fill="#D1D9E0"/>
<ellipse cx="20.8528" cy="170.465" rx="3.165" ry="2.80594" transform="rotate(-90 20.8528 170.465)" fill="#D1D9E0"/>
<ellipse cx="20.8528" cy="80.2569" rx="3.16496" ry="2.80594" transform="rotate(-90 20.8528 80.2569)" fill="#D1D9E0"/>
<ellipse cx="3.80594" cy="170.465" rx="3.165" ry="2.80594" transform="rotate(-90 3.80594 170.465)" fill="#D1D9E0"/>
<ellipse cx="3.80594" cy="80.2569" rx="3.16496" ry="2.80594" transform="rotate(-90 3.80594 80.2569)" fill="#D1D9E0"/>
<ellipse cx="37.8958" cy="170.465" rx="3.165" ry="2.80594" transform="rotate(-90 37.8958 170.465)" fill="#D1D9E0"/>
<ellipse cx="37.8958" cy="80.2569" rx="3.16496" ry="2.80594" transform="rotate(-90 37.8958 80.2569)" fill="#D1D9E0"/>
<ellipse cx="56.3997" cy="62.38" rx="2.76937" ry="2.80594" transform="rotate(-90 56.3997 62.38)" fill="#D1D9E0"/>
<ellipse cx="90.4895" cy="62.38" rx="2.76937" ry="2.80594" transform="rotate(-90 90.4895 62.38)" fill="#D1D9E0"/>
<ellipse cx="73.4427" cy="62.38" rx="2.76937" ry="2.80594" transform="rotate(-90 73.4427 62.38)" fill="#D1D9E0"/>
<ellipse cx="107.533" cy="62.38" rx="2.76937" ry="2.80594" transform="rotate(-90 107.533 62.38)" fill="#D1D9E0"/>
<ellipse cx="56.3997" cy="47.4777" rx="2.76933" ry="2.80594" transform="rotate(-90 56.3997 47.4777)" fill="#D1D9E0"/>
<ellipse cx="90.4895" cy="47.4777" rx="2.76933" ry="2.80594" transform="rotate(-90 90.4895 47.4777)" fill="#D1D9E0"/>
<ellipse cx="73.4466" cy="47.4777" rx="2.76933" ry="2.80594" transform="rotate(-90 73.4466 47.4777)" fill="#D1D9E0"/>
<ellipse cx="107.533" cy="47.4777" rx="2.76933" ry="2.80594" transform="rotate(-90 107.533 47.4777)" fill="#D1D9E0"/>
<ellipse cx="56.3997" cy="32.5749" rx="2.76933" ry="2.80594" transform="rotate(-90 56.3997 32.5749)" fill="#D1D9E0"/>
<ellipse cx="90.4895" cy="32.5749" rx="2.76933" ry="2.80594" transform="rotate(-90 90.4895 32.5749)" fill="#D1D9E0"/>
<ellipse cx="73.4466" cy="32.5749" rx="2.76933" ry="2.80594" transform="rotate(-90 73.4466 32.5749)" fill="#D1D9E0"/>
<ellipse cx="107.533" cy="32.5749" rx="2.76933" ry="2.80594" transform="rotate(-90 107.533 32.5749)" fill="#D1D9E0"/>
<ellipse cx="56.3997" cy="17.672" rx="2.76937" ry="2.80594" transform="rotate(-90 56.3997 17.672)" fill="#D1D9E0"/>
<ellipse cx="90.4895" cy="17.672" rx="2.76937" ry="2.80594" transform="rotate(-90 90.4895 17.672)" fill="#D1D9E0"/>
<ellipse cx="73.4466" cy="17.672" rx="2.76937" ry="2.80594" transform="rotate(-90 73.4466 17.672)" fill="#D1D9E0"/>
<ellipse cx="107.533" cy="17.672" rx="2.76937" ry="2.80594" transform="rotate(-90 107.533 17.672)" fill="#D1D9E0"/>
<ellipse cx="56.3997" cy="2.76969" rx="2.76937" ry="2.80594" transform="rotate(-90 56.3997 2.76969)" fill="#D1D9E0"/>
<ellipse cx="90.4895" cy="2.76969" rx="2.76937" ry="2.80594" transform="rotate(-90 90.4895 2.76969)" fill="#D1D9E0"/>
<ellipse cx="73.4466" cy="2.76969" rx="2.76937" ry="2.80594" transform="rotate(-90 73.4466 2.76969)" fill="#D1D9E0"/>
<ellipse cx="107.533" cy="2.76969" rx="2.76937" ry="2.80594" transform="rotate(-90 107.533 2.76969)" fill="#D1D9E0"/>
<ellipse cx="20.8528" cy="62.38" rx="2.76937" ry="2.80594" transform="rotate(-90 20.8528 62.38)" fill="#D1D9E0"/>
<ellipse cx="3.80594" cy="62.38" rx="2.76937" ry="2.80594" transform="rotate(-90 3.80594 62.38)" fill="#D1D9E0"/>
<ellipse cx="37.8958" cy="62.38" rx="2.76937" ry="2.80594" transform="rotate(-90 37.8958 62.38)" fill="#D1D9E0"/>
<ellipse cx="20.8528" cy="47.4773" rx="2.76933" ry="2.80594" transform="rotate(-90 20.8528 47.4773)" fill="#D1D9E0"/>
<ellipse cx="3.80594" cy="47.4773" rx="2.76933" ry="2.80594" transform="rotate(-90 3.80594 47.4773)" fill="#D1D9E0"/>
<ellipse cx="37.8958" cy="47.4773" rx="2.76933" ry="2.80594" transform="rotate(-90 37.8958 47.4773)" fill="#D1D9E0"/>
<ellipse cx="20.8528" cy="32.5749" rx="2.76933" ry="2.80594" transform="rotate(-90 20.8528 32.5749)" fill="#D1D9E0"/>
<ellipse cx="3.80594" cy="32.5749" rx="2.76933" ry="2.80594" transform="rotate(-90 3.80594 32.5749)" fill="#D1D9E0"/>
<ellipse cx="37.8958" cy="32.5749" rx="2.76937" ry="2.80594" transform="rotate(-90 37.8958 32.5749)" fill="#D1D9E0"/>
<ellipse cx="20.8528" cy="17.6721" rx="2.76933" ry="2.80594" transform="rotate(-90 20.8528 17.6721)" fill="#D1D9E0"/>
<ellipse cx="3.80594" cy="17.6721" rx="2.76933" ry="2.80594" transform="rotate(-90 3.80594 17.6721)" fill="#D1D9E0"/>
<ellipse cx="37.8958" cy="17.6721" rx="2.76933" ry="2.80594" transform="rotate(-90 37.8958 17.6721)" fill="#D1D9E0"/>
<ellipse cx="20.8528" cy="2.76921" rx="2.76937" ry="2.80594" transform="rotate(-90 20.8528 2.76921)" fill="#D1D9E0"/>
<ellipse cx="3.80594" cy="2.76921" rx="2.76937" ry="2.80594" transform="rotate(-90 3.80594 2.76921)" fill="#D1D9E0"/>
<ellipse cx="37.8958" cy="2.76921" rx="2.76937" ry="2.80594" transform="rotate(-90 37.8958 2.76921)" fill="#D1D9E0"/>
</mask>
<g mask="url(#mask0)">
<circle cx="120.667" cy="122.811" r="125.333" transform="rotate(180 120.667 122.811)" fill="url(#paint0_linear)" fill-opacity="0.2"/>
</g>
<rect y="186" width="60" height="30" rx="15" fill="#EDA016"/>
<defs>
<linearGradient id="paint0_linear" x1="120.667" y1="-2.52287" x2="120.667" y2="248.144" gradientUnits="userSpaceOnUse">
<stop stop-color="#7148BD"/>
<stop offset="1" stop-color="#1999E3" stop-opacity="0"/>
</linearGradient>
</defs>
</svg>
