<svg width="275" height="271" viewBox="0 0 275 271" fill="none" xmlns="http://www.w3.org/2000/svg">
<mask id="mask0" mask-type="alpha" maskUnits="userSpaceOnUse" x="0" y="0" width="275" height="272">
<ellipse cx="3.06324" cy="211.334" rx="3.06324" ry="3.10371" fill="#D1D9E0"/>
<ellipse cx="102.844" cy="211.336" rx="3.06322" ry="3.10371" fill="#D1D9E0"/>
<ellipse cx="3.06324" cy="249.042" rx="3.06324" ry="3.10371" fill="#D1D9E0"/>
<ellipse cx="102.844" cy="249.043" rx="3.06322" ry="3.10371" fill="#D1D9E0"/>
<ellipse cx="3.06324" cy="230.188" rx="3.06324" ry="3.10371" fill="#D1D9E0"/>
<ellipse cx="102.844" cy="230.19" rx="3.06322" ry="3.10371" fill="#D1D9E0"/>
<ellipse cx="3.06324" cy="267.895" rx="3.06324" ry="3.10371" fill="#D1D9E0"/>
<ellipse cx="102.844" cy="267.897" rx="3.06322" ry="3.10371" fill="#D1D9E0"/>
<ellipse cx="19.5476" cy="211.337" rx="3.06322" ry="3.10371" fill="#D1D9E0"/>
<ellipse cx="119.329" cy="211.337" rx="3.06326" ry="3.10371" fill="#D1D9E0"/>
<ellipse cx="19.5476" cy="249.043" rx="3.06322" ry="3.10371" fill="#D1D9E0"/>
<ellipse cx="119.329" cy="249.043" rx="3.06326" ry="3.10371" fill="#D1D9E0"/>
<ellipse cx="19.5476" cy="230.19" rx="3.06322" ry="3.10371" fill="#D1D9E0"/>
<ellipse cx="119.329" cy="230.19" rx="3.06326" ry="3.10371" fill="#D1D9E0"/>
<ellipse cx="19.5476" cy="267.897" rx="3.06322" ry="3.10371" fill="#D1D9E0"/>
<ellipse cx="119.329" cy="267.897" rx="3.06326" ry="3.10371" fill="#D1D9E0"/>
<ellipse cx="36.032" cy="211.336" rx="3.06326" ry="3.10371" fill="#D1D9E0"/>
<ellipse cx="135.809" cy="211.336" rx="3.06326" ry="3.10371" fill="#D1D9E0"/>
<ellipse cx="36.032" cy="249.043" rx="3.06326" ry="3.10371" fill="#D1D9E0"/>
<ellipse cx="135.809" cy="249.043" rx="3.06326" ry="3.10371" fill="#D1D9E0"/>
<ellipse cx="36.032" cy="230.19" rx="3.06326" ry="3.10371" fill="#D1D9E0"/>
<ellipse cx="135.809" cy="230.19" rx="3.06326" ry="3.10371" fill="#D1D9E0"/>
<ellipse cx="36.032" cy="267.897" rx="3.06326" ry="3.10371" fill="#D1D9E0"/>
<ellipse cx="135.809" cy="267.897" rx="3.06326" ry="3.10371" fill="#D1D9E0"/>
<ellipse cx="52.5163" cy="211.337" rx="3.06322" ry="3.10371" fill="#D1D9E0"/>
<ellipse cx="152.298" cy="211.337" rx="3.06326" ry="3.10371" fill="#D1D9E0"/>
<ellipse cx="52.5163" cy="249.043" rx="3.06322" ry="3.10371" fill="#D1D9E0"/>
<ellipse cx="152.298" cy="249.043" rx="3.06326" ry="3.10371" fill="#D1D9E0"/>
<ellipse cx="52.5163" cy="230.19" rx="3.06322" ry="3.10371" fill="#D1D9E0"/>
<ellipse cx="152.298" cy="230.19" rx="3.06326" ry="3.10371" fill="#D1D9E0"/>
<ellipse cx="52.5163" cy="267.897" rx="3.06322" ry="3.10371" fill="#D1D9E0"/>
<ellipse cx="152.298" cy="267.897" rx="3.06326" ry="3.10371" fill="#D1D9E0"/>
<ellipse cx="68.9969" cy="211.336" rx="3.06326" ry="3.10371" fill="#D1D9E0"/>
<ellipse cx="168.778" cy="211.336" rx="3.06326" ry="3.10371" fill="#D1D9E0"/>
<ellipse cx="68.9969" cy="249.043" rx="3.06326" ry="3.10371" fill="#D1D9E0"/>
<ellipse cx="168.778" cy="249.043" rx="3.06326" ry="3.10371" fill="#D1D9E0"/>
<ellipse cx="68.9969" cy="230.19" rx="3.06326" ry="3.10371" fill="#D1D9E0"/>
<ellipse cx="168.778" cy="230.19" rx="3.06326" ry="3.10371" fill="#D1D9E0"/>
<ellipse cx="68.9969" cy="267.896" rx="3.06326" ry="3.10371" fill="#D1D9E0"/>
<ellipse cx="168.778" cy="267.896" rx="3.06326" ry="3.10371" fill="#D1D9E0"/>
<ellipse cx="85.9188" cy="211.337" rx="3.50088" ry="3.10371" fill="#D1D9E0"/>
<ellipse cx="185.704" cy="211.337" rx="3.50083" ry="3.10371" fill="#D1D9E0"/>
<ellipse cx="85.9188" cy="249.043" rx="3.50088" ry="3.10371" fill="#D1D9E0"/>
<ellipse cx="185.704" cy="249.043" rx="3.50083" ry="3.10371" fill="#D1D9E0"/>
<ellipse cx="85.9188" cy="230.19" rx="3.50088" ry="3.10371" fill="#D1D9E0"/>
<ellipse cx="185.704" cy="230.19" rx="3.50083" ry="3.10371" fill="#D1D9E0"/>
<ellipse cx="85.9188" cy="267.896" rx="3.50088" ry="3.10371" fill="#D1D9E0"/>
<ellipse cx="185.704" cy="267.896" rx="3.50083" ry="3.10371" fill="#D1D9E0"/>
<ellipse cx="3.06324" cy="134.31" rx="3.06324" ry="3.10371" fill="#D1D9E0"/>
<ellipse cx="102.844" cy="134.309" rx="3.06322" ry="3.10371" fill="#D1D9E0"/>
<ellipse cx="3.06324" cy="172.015" rx="3.06324" ry="3.10371" fill="#D1D9E0"/>
<ellipse cx="102.844" cy="172.016" rx="3.06322" ry="3.10371" fill="#D1D9E0"/>
<ellipse cx="3.06324" cy="153.162" rx="3.06324" ry="3.10371" fill="#D1D9E0"/>
<ellipse cx="102.844" cy="153.163" rx="3.06322" ry="3.10371" fill="#D1D9E0"/>
<ellipse cx="3.06324" cy="190.868" rx="3.06324" ry="3.10371" fill="#D1D9E0"/>
<ellipse cx="102.844" cy="190.869" rx="3.06322" ry="3.10371" fill="#D1D9E0"/>
<ellipse cx="19.5476" cy="134.309" rx="3.06322" ry="3.10371" fill="#D1D9E0"/>
<ellipse cx="119.329" cy="134.309" rx="3.06326" ry="3.10371" fill="#D1D9E0"/>
<ellipse cx="19.5476" cy="172.016" rx="3.06322" ry="3.10371" fill="#D1D9E0"/>
<ellipse cx="119.329" cy="172.016" rx="3.06326" ry="3.10371" fill="#D1D9E0"/>
<ellipse cx="19.5476" cy="153.163" rx="3.06322" ry="3.10371" fill="#D1D9E0"/>
<ellipse cx="119.329" cy="153.163" rx="3.06326" ry="3.10371" fill="#D1D9E0"/>
<ellipse cx="19.5476" cy="190.869" rx="3.06322" ry="3.10371" fill="#D1D9E0"/>
<ellipse cx="119.329" cy="190.869" rx="3.06326" ry="3.10371" fill="#D1D9E0"/>
<ellipse cx="36.032" cy="134.309" rx="3.06326" ry="3.10371" fill="#D1D9E0"/>
<ellipse cx="135.809" cy="134.309" rx="3.06326" ry="3.10371" fill="#D1D9E0"/>
<ellipse cx="36.032" cy="172.016" rx="3.06326" ry="3.10371" fill="#D1D9E0"/>
<ellipse cx="135.809" cy="172.016" rx="3.06326" ry="3.10371" fill="#D1D9E0"/>
<ellipse cx="36.032" cy="153.163" rx="3.06326" ry="3.10371" fill="#D1D9E0"/>
<ellipse cx="135.809" cy="153.163" rx="3.06326" ry="3.10371" fill="#D1D9E0"/>
<ellipse cx="36.032" cy="190.869" rx="3.06326" ry="3.10371" fill="#D1D9E0"/>
<ellipse cx="135.809" cy="190.869" rx="3.06326" ry="3.10371" fill="#D1D9E0"/>
<ellipse cx="52.5163" cy="134.309" rx="3.06322" ry="3.10371" fill="#D1D9E0"/>
<ellipse cx="152.298" cy="134.309" rx="3.06326" ry="3.10371" fill="#D1D9E0"/>
<ellipse cx="52.5163" cy="172.016" rx="3.06322" ry="3.10371" fill="#D1D9E0"/>
<ellipse cx="152.298" cy="172.016" rx="3.06326" ry="3.10371" fill="#D1D9E0"/>
<ellipse cx="52.5163" cy="153.163" rx="3.06322" ry="3.10371" fill="#D1D9E0"/>
<ellipse cx="152.298" cy="153.163" rx="3.06326" ry="3.10371" fill="#D1D9E0"/>
<ellipse cx="52.5163" cy="190.869" rx="3.06322" ry="3.10371" fill="#D1D9E0"/>
<ellipse cx="152.298" cy="190.869" rx="3.06326" ry="3.10371" fill="#D1D9E0"/>
<ellipse cx="68.9969" cy="134.309" rx="3.06326" ry="3.10371" fill="#D1D9E0"/>
<ellipse cx="168.782" cy="134.309" rx="3.06326" ry="3.10371" fill="#D1D9E0"/>
<ellipse cx="68.9969" cy="172.016" rx="3.06326" ry="3.10371" fill="#D1D9E0"/>
<ellipse cx="168.778" cy="172.016" rx="3.06326" ry="3.10371" fill="#D1D9E0"/>
<ellipse cx="68.9969" cy="153.163" rx="3.06326" ry="3.10371" fill="#D1D9E0"/>
<ellipse cx="168.778" cy="153.163" rx="3.06326" ry="3.10371" fill="#D1D9E0"/>
<ellipse cx="68.9969" cy="190.869" rx="3.06326" ry="3.10371" fill="#D1D9E0"/>
<ellipse cx="168.778" cy="190.869" rx="3.06326" ry="3.10371" fill="#D1D9E0"/>
<ellipse cx="85.9188" cy="134.309" rx="3.50088" ry="3.10371" fill="#D1D9E0"/>
<ellipse cx="185.704" cy="134.309" rx="3.50083" ry="3.10371" fill="#D1D9E0"/>
<ellipse cx="85.9188" cy="172.016" rx="3.50088" ry="3.10371" fill="#D1D9E0"/>
<ellipse cx="185.704" cy="172.016" rx="3.50083" ry="3.10371" fill="#D1D9E0"/>
<ellipse cx="85.9188" cy="153.163" rx="3.50088" ry="3.10371" fill="#D1D9E0"/>
<ellipse cx="185.704" cy="153.163" rx="3.50083" ry="3.10371" fill="#D1D9E0"/>
<ellipse cx="85.9188" cy="190.869" rx="3.50088" ry="3.10371" fill="#D1D9E0"/>
<ellipse cx="185.704" cy="190.869" rx="3.50083" ry="3.10371" fill="#D1D9E0"/>
<ellipse cx="205.473" cy="211.339" rx="3.06326" ry="3.10371" fill="#D1D9E0"/>
<ellipse cx="205.473" cy="249.043" rx="3.06326" ry="3.10371" fill="#D1D9E0"/>
<ellipse cx="205.473" cy="230.189" rx="3.06326" ry="3.10371" fill="#D1D9E0"/>
<ellipse cx="205.473" cy="267.896" rx="3.06326" ry="3.10371" fill="#D1D9E0"/>
<ellipse cx="221.958" cy="211.336" rx="3.06322" ry="3.10371" fill="#D1D9E0"/>
<ellipse cx="221.958" cy="249.043" rx="3.06322" ry="3.10371" fill="#D1D9E0"/>
<ellipse cx="221.958" cy="230.19" rx="3.06322" ry="3.10371" fill="#D1D9E0"/>
<ellipse cx="221.958" cy="267.896" rx="3.06322" ry="3.10371" fill="#D1D9E0"/>
<ellipse cx="238.442" cy="211.336" rx="3.06322" ry="3.10371" fill="#D1D9E0"/>
<ellipse cx="238.442" cy="249.043" rx="3.06322" ry="3.10371" fill="#D1D9E0"/>
<ellipse cx="238.442" cy="230.189" rx="3.06322" ry="3.10371" fill="#D1D9E0"/>
<ellipse cx="238.442" cy="267.896" rx="3.06322" ry="3.10371" fill="#D1D9E0"/>
<ellipse cx="254.927" cy="211.336" rx="3.06326" ry="3.10371" fill="#D1D9E0"/>
<ellipse cx="254.927" cy="249.043" rx="3.06326" ry="3.10371" fill="#D1D9E0"/>
<ellipse cx="254.927" cy="230.19" rx="3.06326" ry="3.10371" fill="#D1D9E0"/>
<ellipse cx="254.927" cy="267.896" rx="3.06326" ry="3.10371" fill="#D1D9E0"/>
<ellipse cx="271.407" cy="211.336" rx="3.06326" ry="3.10371" fill="#D1D9E0"/>
<ellipse cx="271.407" cy="249.043" rx="3.06326" ry="3.10371" fill="#D1D9E0"/>
<ellipse cx="271.407" cy="230.189" rx="3.06326" ry="3.10371" fill="#D1D9E0"/>
<ellipse cx="271.407" cy="267.896" rx="3.06326" ry="3.10371" fill="#D1D9E0"/>
<ellipse cx="205.473" cy="134.312" rx="3.06326" ry="3.10371" fill="#D1D9E0"/>
<ellipse cx="205.473" cy="172.018" rx="3.06326" ry="3.10371" fill="#D1D9E0"/>
<ellipse cx="205.473" cy="153.164" rx="3.06326" ry="3.10371" fill="#D1D9E0"/>
<ellipse cx="205.473" cy="190.871" rx="3.06326" ry="3.10371" fill="#D1D9E0"/>
<ellipse cx="221.958" cy="134.311" rx="3.06322" ry="3.10371" fill="#D1D9E0"/>
<ellipse cx="221.958" cy="172.018" rx="3.06322" ry="3.10371" fill="#D1D9E0"/>
<ellipse cx="221.958" cy="153.165" rx="3.06322" ry="3.10371" fill="#D1D9E0"/>
<ellipse cx="221.958" cy="190.871" rx="3.06322" ry="3.10371" fill="#D1D9E0"/>
<ellipse cx="238.442" cy="134.311" rx="3.06322" ry="3.10371" fill="#D1D9E0"/>
<ellipse cx="238.442" cy="172.018" rx="3.06322" ry="3.10371" fill="#D1D9E0"/>
<ellipse cx="238.442" cy="153.164" rx="3.06322" ry="3.10371" fill="#D1D9E0"/>
<ellipse cx="238.442" cy="190.871" rx="3.06322" ry="3.10371" fill="#D1D9E0"/>
<ellipse cx="254.926" cy="134.311" rx="3.06322" ry="3.10371" fill="#D1D9E0"/>
<ellipse cx="254.927" cy="172.018" rx="3.06326" ry="3.10371" fill="#D1D9E0"/>
<ellipse cx="254.926" cy="153.165" rx="3.06322" ry="3.10371" fill="#D1D9E0"/>
<ellipse cx="254.927" cy="190.871" rx="3.06326" ry="3.10371" fill="#D1D9E0"/>
<ellipse cx="271.407" cy="134.311" rx="3.06326" ry="3.10371" fill="#D1D9E0"/>
<ellipse cx="271.407" cy="172.018" rx="3.06326" ry="3.10371" fill="#D1D9E0"/>
<ellipse cx="271.407" cy="153.164" rx="3.06326" ry="3.10371" fill="#D1D9E0"/>
<ellipse cx="271.407" cy="190.871" rx="3.06326" ry="3.10371" fill="#D1D9E0"/>
<ellipse cx="3.06324" cy="61.2761" rx="3.06324" ry="3.10371" fill="#D1D9E0"/>
<ellipse cx="102.844" cy="61.2775" rx="3.06322" ry="3.10371" fill="#D1D9E0"/>
<ellipse cx="3.06324" cy="98.9835" rx="3.06324" ry="3.10371" fill="#D1D9E0"/>
<ellipse cx="102.844" cy="98.9851" rx="3.06322" ry="3.10371" fill="#D1D9E0"/>
<ellipse cx="3.06324" cy="80.1302" rx="3.06324" ry="3.10371" fill="#D1D9E0"/>
<ellipse cx="102.844" cy="80.1321" rx="3.06322" ry="3.10371" fill="#D1D9E0"/>
<ellipse cx="3.06324" cy="117.837" rx="3.06324" ry="3.10371" fill="#D1D9E0"/>
<ellipse cx="102.844" cy="117.838" rx="3.06322" ry="3.10371" fill="#D1D9E0"/>
<ellipse cx="19.5476" cy="61.2785" rx="3.06324" ry="3.10371" fill="#D1D9E0"/>
<ellipse cx="119.329" cy="61.2786" rx="3.06326" ry="3.10371" fill="#D1D9E0"/>
<ellipse cx="19.5476" cy="98.9851" rx="3.06324" ry="3.10371" fill="#D1D9E0"/>
<ellipse cx="119.329" cy="98.9851" rx="3.06326" ry="3.10371" fill="#D1D9E0"/>
<ellipse cx="19.5476" cy="80.1321" rx="3.06324" ry="3.10371" fill="#D1D9E0"/>
<ellipse cx="119.329" cy="80.1321" rx="3.06326" ry="3.10371" fill="#D1D9E0"/>
<ellipse cx="19.5476" cy="117.838" rx="3.06324" ry="3.10371" fill="#D1D9E0"/>
<ellipse cx="119.329" cy="117.838" rx="3.06326" ry="3.10371" fill="#D1D9E0"/>
<ellipse cx="36.032" cy="61.2775" rx="3.06326" ry="3.10371" fill="#D1D9E0"/>
<ellipse cx="135.809" cy="61.2775" rx="3.06326" ry="3.10371" fill="#D1D9E0"/>
<ellipse cx="36.032" cy="98.9851" rx="3.06326" ry="3.10371" fill="#D1D9E0"/>
<ellipse cx="135.809" cy="98.9851" rx="3.06326" ry="3.10371" fill="#D1D9E0"/>
<ellipse cx="36.032" cy="80.1306" rx="3.06326" ry="3.10371" fill="#D1D9E0"/>
<ellipse cx="135.809" cy="80.1306" rx="3.06326" ry="3.10371" fill="#D1D9E0"/>
<ellipse cx="36.032" cy="117.838" rx="3.06326" ry="3.10371" fill="#D1D9E0"/>
<ellipse cx="135.809" cy="117.838" rx="3.06326" ry="3.10371" fill="#D1D9E0"/>
<ellipse cx="52.5163" cy="61.2785" rx="3.06322" ry="3.10371" fill="#D1D9E0"/>
<ellipse cx="152.298" cy="61.2786" rx="3.06326" ry="3.10371" fill="#D1D9E0"/>
<ellipse cx="52.5163" cy="98.9841" rx="3.06322" ry="3.10371" fill="#D1D9E0"/>
<ellipse cx="152.298" cy="98.9841" rx="3.06326" ry="3.10371" fill="#D1D9E0"/>
<ellipse cx="52.5163" cy="80.1321" rx="3.06322" ry="3.10371" fill="#D1D9E0"/>
<ellipse cx="152.298" cy="80.1321" rx="3.06326" ry="3.10371" fill="#D1D9E0"/>
<ellipse cx="52.5163" cy="117.838" rx="3.06322" ry="3.10371" fill="#D1D9E0"/>
<ellipse cx="152.298" cy="117.838" rx="3.06326" ry="3.10371" fill="#D1D9E0"/>
<ellipse cx="68.9969" cy="61.2775" rx="3.06326" ry="3.10371" fill="#D1D9E0"/>
<ellipse cx="168.778" cy="61.2775" rx="3.06326" ry="3.10371" fill="#D1D9E0"/>
<ellipse cx="68.9969" cy="98.9841" rx="3.06326" ry="3.10371" fill="#D1D9E0"/>
<ellipse cx="168.778" cy="98.9841" rx="3.06326" ry="3.10371" fill="#D1D9E0"/>
<ellipse cx="68.9969" cy="80.1321" rx="3.06326" ry="3.10371" fill="#D1D9E0"/>
<ellipse cx="168.778" cy="80.1321" rx="3.06326" ry="3.10371" fill="#D1D9E0"/>
<ellipse cx="68.9969" cy="117.838" rx="3.06326" ry="3.10371" fill="#D1D9E0"/>
<ellipse cx="168.778" cy="117.838" rx="3.06326" ry="3.10371" fill="#D1D9E0"/>
<ellipse cx="85.9188" cy="61.2786" rx="3.50088" ry="3.10371" fill="#D1D9E0"/>
<ellipse cx="185.704" cy="61.2786" rx="3.50083" ry="3.10371" fill="#D1D9E0"/>
<ellipse cx="85.9188" cy="98.9841" rx="3.50088" ry="3.10371" fill="#D1D9E0"/>
<ellipse cx="185.704" cy="98.9841" rx="3.50083" ry="3.10371" fill="#D1D9E0"/>
<ellipse cx="85.9188" cy="80.1306" rx="3.50088" ry="3.10371" fill="#D1D9E0"/>
<ellipse cx="185.704" cy="80.1306" rx="3.50083" ry="3.10371" fill="#D1D9E0"/>
<ellipse cx="85.9188" cy="117.838" rx="3.50088" ry="3.10371" fill="#D1D9E0"/>
<ellipse cx="185.704" cy="117.838" rx="3.50083" ry="3.10371" fill="#D1D9E0"/>
<ellipse cx="3.06324" cy="21.9586" rx="3.06324" ry="3.10371" fill="#D1D9E0"/>
<ellipse cx="102.844" cy="21.96" rx="3.06322" ry="3.10371" fill="#D1D9E0"/>
<ellipse cx="3.06324" cy="3.10529" rx="3.06324" ry="3.10371" fill="#D1D9E0"/>
<ellipse cx="102.844" cy="3.10677" rx="3.06322" ry="3.10371" fill="#D1D9E0"/>
<ellipse cx="3.06324" cy="40.8116" rx="3.06324" ry="3.10371" fill="#D1D9E0"/>
<ellipse cx="102.844" cy="40.8135" rx="3.06322" ry="3.10371" fill="#D1D9E0"/>
<ellipse cx="19.5476" cy="21.96" rx="3.06324" ry="3.10371" fill="#D1D9E0"/>
<ellipse cx="119.329" cy="21.9601" rx="3.06326" ry="3.10371" fill="#D1D9E0"/>
<ellipse cx="19.5476" cy="3.10677" rx="3.06324" ry="3.10371" fill="#D1D9E0"/>
<ellipse cx="119.329" cy="3.10677" rx="3.06326" ry="3.10371" fill="#D1D9E0"/>
<ellipse cx="19.5476" cy="40.8135" rx="3.06324" ry="3.10371" fill="#D1D9E0"/>
<ellipse cx="119.329" cy="40.8135" rx="3.06326" ry="3.10371" fill="#D1D9E0"/>
<ellipse cx="36.032" cy="21.9601" rx="3.06326" ry="3.10371" fill="#D1D9E0"/>
<ellipse cx="135.809" cy="21.96" rx="3.06326" ry="3.10371" fill="#D1D9E0"/>
<ellipse cx="36.032" cy="3.10677" rx="3.06326" ry="3.10371" fill="#D1D9E0"/>
<ellipse cx="135.809" cy="3.10677" rx="3.06326" ry="3.10371" fill="#D1D9E0"/>
<ellipse cx="36.032" cy="40.8135" rx="3.06326" ry="3.10371" fill="#D1D9E0"/>
<ellipse cx="135.809" cy="40.8135" rx="3.06326" ry="3.10371" fill="#D1D9E0"/>
<ellipse cx="52.5163" cy="21.96" rx="3.06322" ry="3.10371" fill="#D1D9E0"/>
<ellipse cx="152.298" cy="21.9601" rx="3.06326" ry="3.10371" fill="#D1D9E0"/>
<ellipse cx="52.5163" cy="3.10677" rx="3.06322" ry="3.10371" fill="#D1D9E0"/>
<ellipse cx="152.298" cy="3.10677" rx="3.06326" ry="3.10371" fill="#D1D9E0"/>
<ellipse cx="52.5163" cy="40.8135" rx="3.06322" ry="3.10371" fill="#D1D9E0"/>
<ellipse cx="152.298" cy="40.8135" rx="3.06326" ry="3.10371" fill="#D1D9E0"/>
<ellipse cx="68.9969" cy="21.9601" rx="3.06326" ry="3.10371" fill="#D1D9E0"/>
<ellipse cx="168.778" cy="21.96" rx="3.06326" ry="3.10371" fill="#D1D9E0"/>
<ellipse cx="68.9969" cy="3.10677" rx="3.06326" ry="3.10371" fill="#D1D9E0"/>
<ellipse cx="168.778" cy="3.10677" rx="3.06326" ry="3.10371" fill="#D1D9E0"/>
<ellipse cx="68.9969" cy="40.8135" rx="3.06326" ry="3.10371" fill="#D1D9E0"/>
<ellipse cx="168.778" cy="40.8135" rx="3.06326" ry="3.10371" fill="#D1D9E0"/>
<ellipse cx="85.9188" cy="21.96" rx="3.50088" ry="3.10371" fill="#D1D9E0"/>
<ellipse cx="185.704" cy="21.9601" rx="3.50083" ry="3.10371" fill="#D1D9E0"/>
<ellipse cx="85.9188" cy="3.10677" rx="3.50088" ry="3.10371" fill="#D1D9E0"/>
<ellipse cx="185.704" cy="3.10677" rx="3.50083" ry="3.10371" fill="#D1D9E0"/>
<ellipse cx="85.9188" cy="40.8135" rx="3.50088" ry="3.10371" fill="#D1D9E0"/>
<ellipse cx="185.704" cy="40.8135" rx="3.50083" ry="3.10371" fill="#D1D9E0"/>
<ellipse cx="205.481" cy="61.2782" rx="3.06326" ry="3.10371" fill="#D1D9E0"/>
<ellipse cx="205.481" cy="98.9842" rx="3.06326" ry="3.10371" fill="#D1D9E0"/>
<ellipse cx="205.481" cy="80.1315" rx="3.06326" ry="3.10371" fill="#D1D9E0"/>
<ellipse cx="205.481" cy="117.838" rx="3.06326" ry="3.10371" fill="#D1D9E0"/>
<ellipse cx="221.966" cy="61.2785" rx="3.06322" ry="3.10371" fill="#D1D9E0"/>
<ellipse cx="221.966" cy="98.9855" rx="3.06322" ry="3.10371" fill="#D1D9E0"/>
<ellipse cx="221.966" cy="80.1322" rx="3.06322" ry="3.10371" fill="#D1D9E0"/>
<ellipse cx="221.966" cy="117.839" rx="3.06322" ry="3.10371" fill="#D1D9E0"/>
<ellipse cx="238.45" cy="61.2785" rx="3.06322" ry="3.10371" fill="#D1D9E0"/>
<ellipse cx="238.45" cy="98.9855" rx="3.06322" ry="3.10371" fill="#D1D9E0"/>
<ellipse cx="238.45" cy="80.1322" rx="3.06322" ry="3.10371" fill="#D1D9E0"/>
<ellipse cx="238.45" cy="117.839" rx="3.06322" ry="3.10371" fill="#D1D9E0"/>
<ellipse cx="254.934" cy="61.2785" rx="3.06326" ry="3.10371" fill="#D1D9E0"/>
<ellipse cx="254.934" cy="98.985" rx="3.06326" ry="3.10371" fill="#D1D9E0"/>
<ellipse cx="254.934" cy="80.1322" rx="3.06326" ry="3.10371" fill="#D1D9E0"/>
<ellipse cx="254.934" cy="117.838" rx="3.06326" ry="3.10371" fill="#D1D9E0"/>
<ellipse cx="271.415" cy="61.2779" rx="3.06326" ry="3.10371" fill="#D1D9E0"/>
<ellipse cx="271.415" cy="98.985" rx="3.06326" ry="3.10371" fill="#D1D9E0"/>
<ellipse cx="271.415" cy="80.1322" rx="3.06326" ry="3.10371" fill="#D1D9E0"/>
<ellipse cx="271.415" cy="117.838" rx="3.06326" ry="3.10371" fill="#D1D9E0"/>
<ellipse cx="205.481" cy="21.9579" rx="3.06326" ry="3.10371" fill="#D1D9E0"/>
<ellipse cx="205.481" cy="3.10365" rx="3.06326" ry="3.10371" fill="#D1D9E0"/>
<ellipse cx="205.481" cy="40.8111" rx="3.06326" ry="3.10371" fill="#D1D9E0"/>
<ellipse cx="221.966" cy="21.9584" rx="3.06322" ry="3.10371" fill="#D1D9E0"/>
<ellipse cx="221.966" cy="3.1052" rx="3.06322" ry="3.10371" fill="#D1D9E0"/>
<ellipse cx="221.966" cy="40.8117" rx="3.06322" ry="3.10371" fill="#D1D9E0"/>
<ellipse cx="238.45" cy="21.9584" rx="3.06322" ry="3.10371" fill="#D1D9E0"/>
<ellipse cx="238.45" cy="3.1052" rx="3.06322" ry="3.10371" fill="#D1D9E0"/>
<ellipse cx="238.45" cy="40.8117" rx="3.06326" ry="3.10371" fill="#D1D9E0"/>
<ellipse cx="254.934" cy="21.9584" rx="3.06322" ry="3.10371" fill="#D1D9E0"/>
<ellipse cx="254.934" cy="3.1052" rx="3.06322" ry="3.10371" fill="#D1D9E0"/>
<ellipse cx="254.934" cy="40.8117" rx="3.06322" ry="3.10371" fill="#D1D9E0"/>
<ellipse cx="271.415" cy="21.9584" rx="3.06326" ry="3.10371" fill="#D1D9E0"/>
<ellipse cx="271.415" cy="3.1052" rx="3.06326" ry="3.10371" fill="#D1D9E0"/>
<ellipse cx="271.415" cy="40.8117" rx="3.06326" ry="3.10371" fill="#D1D9E0"/>
</mask>
<g mask="url(#mask0)">
<circle cx="138.634" cy="132.365" r="138.634" transform="rotate(-90 138.634 132.365)" fill="#D1D9E0" fill-opacity="0.2"/>
</g>
<path d="M20 60.5C20 69.9152 23.7402 78.9448 30.3977 85.6023C37.0553 92.2598 46.0848 96 55.5 96C64.9152 96 73.9447 92.2598 80.6023 85.6023C87.2598 78.9448 91 69.9152 91 60.5L55.5 60.5L20 60.5Z" fill="#9A4CB6"/>
</svg>
