<svg width="173" height="156" viewBox="0 0 173 156" fill="none" xmlns="http://www.w3.org/2000/svg">
<mask id="mask0" mask-type="alpha" maskUnits="userSpaceOnUse" x="0" y="0" width="154" height="156">
<ellipse cx="33.7735" cy="1.73463" rx="1.7339" ry="1.75681" transform="rotate(90 33.7735 1.73463)" fill="#D1D9E0"/>
<ellipse cx="33.7722" cy="58.2128" rx="1.73388" ry="1.75681" transform="rotate(90 33.7722 58.2128)" fill="#D1D9E0"/>
<ellipse cx="12.4295" cy="1.7339" rx="1.7339" ry="1.75681" transform="rotate(90 12.4295 1.7339)" fill="#D1D9E0"/>
<ellipse cx="12.4288" cy="58.2128" rx="1.73388" ry="1.75681" transform="rotate(90 12.4288 58.2128)" fill="#D1D9E0"/>
<ellipse cx="23.1012" cy="1.7339" rx="1.7339" ry="1.75681" transform="rotate(90 23.1012 1.7339)" fill="#D1D9E0"/>
<ellipse cx="23.1005" cy="58.2128" rx="1.73388" ry="1.75681" transform="rotate(90 23.1005 58.2128)" fill="#D1D9E0"/>
<ellipse cx="1.75787" cy="1.7339" rx="1.7339" ry="1.75681" transform="rotate(90 1.75787 1.7339)" fill="#D1D9E0"/>
<ellipse cx="1.75683" cy="58.2128" rx="1.73388" ry="1.75681" transform="rotate(90 1.75683 58.2128)" fill="#D1D9E0"/>
<ellipse cx="33.772" cy="11.0641" rx="1.73388" ry="1.75681" transform="rotate(90 33.772 11.0641)" fill="#D1D9E0"/>
<ellipse cx="33.772" cy="67.543" rx="1.73391" ry="1.75681" transform="rotate(90 33.772 67.543)" fill="#D1D9E0"/>
<ellipse cx="12.4288" cy="11.0641" rx="1.73388" ry="1.75681" transform="rotate(90 12.4288 11.0641)" fill="#D1D9E0"/>
<ellipse cx="12.4288" cy="67.543" rx="1.73391" ry="1.75681" transform="rotate(90 12.4288 67.543)" fill="#D1D9E0"/>
<ellipse cx="23.1005" cy="11.0641" rx="1.73388" ry="1.75681" transform="rotate(90 23.1005 11.0641)" fill="#D1D9E0"/>
<ellipse cx="23.1005" cy="67.543" rx="1.73391" ry="1.75681" transform="rotate(90 23.1005 67.543)" fill="#D1D9E0"/>
<ellipse cx="1.75679" cy="11.0641" rx="1.73388" ry="1.75681" transform="rotate(90 1.75679 11.0641)" fill="#D1D9E0"/>
<ellipse cx="1.75684" cy="67.5436" rx="1.73391" ry="1.75681" transform="rotate(90 1.75684 67.5436)" fill="#D1D9E0"/>
<ellipse cx="33.7722" cy="20.3949" rx="1.73391" ry="1.75681" transform="rotate(90 33.7722 20.3949)" fill="#D1D9E0"/>
<ellipse cx="33.7722" cy="76.8743" rx="1.73391" ry="1.75681" transform="rotate(90 33.7722 76.8743)" fill="#D1D9E0"/>
<ellipse cx="12.4288" cy="20.3949" rx="1.73391" ry="1.75681" transform="rotate(90 12.4288 20.3949)" fill="#D1D9E0"/>
<ellipse cx="12.4288" cy="76.8743" rx="1.73391" ry="1.75681" transform="rotate(90 12.4288 76.8743)" fill="#D1D9E0"/>
<ellipse cx="23.1005" cy="20.3949" rx="1.73391" ry="1.75681" transform="rotate(90 23.1005 20.3949)" fill="#D1D9E0"/>
<ellipse cx="23.1005" cy="76.8743" rx="1.73391" ry="1.75681" transform="rotate(90 23.1005 76.8743)" fill="#D1D9E0"/>
<ellipse cx="1.75679" cy="20.3949" rx="1.73391" ry="1.75681" transform="rotate(90 1.75679 20.3949)" fill="#D1D9E0"/>
<ellipse cx="1.75684" cy="76.8743" rx="1.73391" ry="1.75681" transform="rotate(90 1.75684 76.8743)" fill="#D1D9E0"/>
<ellipse cx="33.772" cy="29.7256" rx="1.73388" ry="1.75681" transform="rotate(90 33.772 29.7256)" fill="#D1D9E0"/>
<ellipse cx="33.772" cy="86.205" rx="1.73391" ry="1.75681" transform="rotate(90 33.772 86.205)" fill="#D1D9E0"/>
<ellipse cx="12.4288" cy="29.7256" rx="1.73388" ry="1.75681" transform="rotate(90 12.4288 29.7256)" fill="#D1D9E0"/>
<ellipse cx="12.4288" cy="86.205" rx="1.73391" ry="1.75681" transform="rotate(90 12.4288 86.205)" fill="#D1D9E0"/>
<ellipse cx="23.1005" cy="29.7256" rx="1.73388" ry="1.75681" transform="rotate(90 23.1005 29.7256)" fill="#D1D9E0"/>
<ellipse cx="23.1005" cy="86.205" rx="1.73391" ry="1.75681" transform="rotate(90 23.1005 86.205)" fill="#D1D9E0"/>
<ellipse cx="1.75718" cy="29.7256" rx="1.73388" ry="1.75681" transform="rotate(90 1.75718 29.7256)" fill="#D1D9E0"/>
<ellipse cx="1.75718" cy="86.2055" rx="1.73391" ry="1.75681" transform="rotate(90 1.75718 86.2055)" fill="#D1D9E0"/>
<ellipse cx="33.7722" cy="39.0559" rx="1.73391" ry="1.75681" transform="rotate(90 33.7722 39.0559)" fill="#D1D9E0"/>
<ellipse cx="33.7722" cy="95.5348" rx="1.73391" ry="1.75681" transform="rotate(90 33.7722 95.5348)" fill="#D1D9E0"/>
<ellipse cx="12.4288" cy="39.0559" rx="1.73391" ry="1.75681" transform="rotate(90 12.4288 39.0559)" fill="#D1D9E0"/>
<ellipse cx="12.4288" cy="95.5348" rx="1.73391" ry="1.75681" transform="rotate(90 12.4288 95.5348)" fill="#D1D9E0"/>
<ellipse cx="23.1005" cy="39.0559" rx="1.73391" ry="1.75681" transform="rotate(90 23.1005 39.0559)" fill="#D1D9E0"/>
<ellipse cx="23.1005" cy="95.5348" rx="1.73391" ry="1.75681" transform="rotate(90 23.1005 95.5348)" fill="#D1D9E0"/>
<ellipse cx="1.75717" cy="39.0559" rx="1.73391" ry="1.75681" transform="rotate(90 1.75717 39.0559)" fill="#D1D9E0"/>
<ellipse cx="1.75717" cy="95.5348" rx="1.73391" ry="1.75681" transform="rotate(90 1.75717 95.5348)" fill="#D1D9E0"/>
<ellipse cx="33.772" cy="48.6343" rx="1.98161" ry="1.75681" transform="rotate(90 33.772 48.6343)" fill="#D1D9E0"/>
<ellipse cx="33.772" cy="105.113" rx="1.98159" ry="1.75681" transform="rotate(90 33.772 105.113)" fill="#D1D9E0"/>
<ellipse cx="12.4288" cy="48.6343" rx="1.98161" ry="1.75681" transform="rotate(90 12.4288 48.6343)" fill="#D1D9E0"/>
<ellipse cx="12.4288" cy="105.113" rx="1.98159" ry="1.75681" transform="rotate(90 12.4288 105.113)" fill="#D1D9E0"/>
<ellipse cx="23.1005" cy="48.6343" rx="1.98161" ry="1.75681" transform="rotate(90 23.1005 48.6343)" fill="#D1D9E0"/>
<ellipse cx="23.1005" cy="105.113" rx="1.98159" ry="1.75681" transform="rotate(90 23.1005 105.113)" fill="#D1D9E0"/>
<ellipse cx="1.75717" cy="48.6343" rx="1.98161" ry="1.75681" transform="rotate(90 1.75717 48.6343)" fill="#D1D9E0"/>
<ellipse cx="1.75717" cy="105.114" rx="1.98159" ry="1.75681" transform="rotate(90 1.75717 105.114)" fill="#D1D9E0"/>
<ellipse cx="77.372" cy="1.73463" rx="1.7339" ry="1.75681" transform="rotate(90 77.372 1.73463)" fill="#D1D9E0"/>
<ellipse cx="77.372" cy="58.2128" rx="1.73388" ry="1.75681" transform="rotate(90 77.372 58.2128)" fill="#D1D9E0"/>
<ellipse cx="56.029" cy="1.7339" rx="1.7339" ry="1.75681" transform="rotate(90 56.029 1.7339)" fill="#D1D9E0"/>
<ellipse cx="56.0286" cy="58.2128" rx="1.73388" ry="1.75681" transform="rotate(90 56.0286 58.2128)" fill="#D1D9E0"/>
<ellipse cx="66.7007" cy="1.7339" rx="1.7339" ry="1.75681" transform="rotate(90 66.7007 1.7339)" fill="#D1D9E0"/>
<ellipse cx="66.7001" cy="58.2128" rx="1.73388" ry="1.75681" transform="rotate(90 66.7001 58.2128)" fill="#D1D9E0"/>
<ellipse cx="46.8622" cy="1.7339" rx="1.7339" ry="1.75681" transform="rotate(90 46.8622 1.7339)" fill="#D1D9E0"/>
<ellipse cx="46.8618" cy="58.2128" rx="1.73388" ry="1.75681" transform="rotate(90 46.8618 58.2128)" fill="#D1D9E0"/>
<ellipse cx="77.372" cy="11.0641" rx="1.73388" ry="1.75681" transform="rotate(90 77.372 11.0641)" fill="#D1D9E0"/>
<ellipse cx="77.372" cy="67.5435" rx="1.73391" ry="1.75681" transform="rotate(90 77.372 67.5435)" fill="#D1D9E0"/>
<ellipse cx="56.0286" cy="11.0641" rx="1.73388" ry="1.75681" transform="rotate(90 56.0286 11.0641)" fill="#D1D9E0"/>
<ellipse cx="56.0286" cy="67.5436" rx="1.73391" ry="1.75681" transform="rotate(90 56.0286 67.5436)" fill="#D1D9E0"/>
<ellipse cx="66.7001" cy="11.0641" rx="1.73388" ry="1.75681" transform="rotate(90 66.7001 11.0641)" fill="#D1D9E0"/>
<ellipse cx="66.7001" cy="67.5436" rx="1.73391" ry="1.75681" transform="rotate(90 66.7001 67.5436)" fill="#D1D9E0"/>
<ellipse cx="46.8618" cy="11.0641" rx="1.73388" ry="1.75681" transform="rotate(90 46.8618 11.0641)" fill="#D1D9E0"/>
<ellipse cx="46.8618" cy="67.5436" rx="1.73391" ry="1.75681" transform="rotate(90 46.8618 67.5436)" fill="#D1D9E0"/>
<ellipse cx="77.372" cy="20.3954" rx="1.73391" ry="1.75681" transform="rotate(90 77.372 20.3954)" fill="#D1D9E0"/>
<ellipse cx="77.372" cy="76.8743" rx="1.73391" ry="1.75681" transform="rotate(90 77.372 76.8743)" fill="#D1D9E0"/>
<ellipse cx="56.0286" cy="20.3949" rx="1.73391" ry="1.75681" transform="rotate(90 56.0286 20.3949)" fill="#D1D9E0"/>
<ellipse cx="56.0286" cy="76.8743" rx="1.73391" ry="1.75681" transform="rotate(90 56.0286 76.8743)" fill="#D1D9E0"/>
<ellipse cx="66.7001" cy="20.3949" rx="1.73391" ry="1.75681" transform="rotate(90 66.7001 20.3949)" fill="#D1D9E0"/>
<ellipse cx="66.7001" cy="76.8743" rx="1.73391" ry="1.75681" transform="rotate(90 66.7001 76.8743)" fill="#D1D9E0"/>
<ellipse cx="46.8618" cy="20.3949" rx="1.73391" ry="1.75681" transform="rotate(90 46.8618 20.3949)" fill="#D1D9E0"/>
<ellipse cx="46.8618" cy="76.8743" rx="1.73391" ry="1.75681" transform="rotate(90 46.8618 76.8743)" fill="#D1D9E0"/>
<ellipse cx="77.372" cy="29.7256" rx="1.73388" ry="1.75681" transform="rotate(90 77.372 29.7256)" fill="#D1D9E0"/>
<ellipse cx="77.372" cy="86.2055" rx="1.73391" ry="1.75681" transform="rotate(90 77.372 86.2055)" fill="#D1D9E0"/>
<ellipse cx="56.0286" cy="29.7256" rx="1.73388" ry="1.75681" transform="rotate(90 56.0286 29.7256)" fill="#D1D9E0"/>
<ellipse cx="56.0286" cy="86.2055" rx="1.73391" ry="1.75681" transform="rotate(90 56.0286 86.2055)" fill="#D1D9E0"/>
<ellipse cx="66.7001" cy="29.7256" rx="1.73388" ry="1.75681" transform="rotate(90 66.7001 29.7256)" fill="#D1D9E0"/>
<ellipse cx="66.7001" cy="86.2055" rx="1.73391" ry="1.75681" transform="rotate(90 66.7001 86.2055)" fill="#D1D9E0"/>
<ellipse cx="46.8618" cy="29.7256" rx="1.73388" ry="1.75681" transform="rotate(90 46.8618 29.7256)" fill="#D1D9E0"/>
<ellipse cx="46.8618" cy="86.2055" rx="1.73391" ry="1.75681" transform="rotate(90 46.8618 86.2055)" fill="#D1D9E0"/>
<ellipse cx="77.372" cy="39.0559" rx="1.73391" ry="1.75681" transform="rotate(90 77.372 39.0559)" fill="#D1D9E0"/>
<ellipse cx="77.372" cy="95.5353" rx="1.73391" ry="1.75681" transform="rotate(90 77.372 95.5353)" fill="#D1D9E0"/>
<ellipse cx="56.0286" cy="39.0559" rx="1.73391" ry="1.75681" transform="rotate(90 56.0286 39.0559)" fill="#D1D9E0"/>
<ellipse cx="56.0286" cy="95.5348" rx="1.73391" ry="1.75681" transform="rotate(90 56.0286 95.5348)" fill="#D1D9E0"/>
<ellipse cx="66.7001" cy="39.0559" rx="1.73391" ry="1.75681" transform="rotate(90 66.7001 39.0559)" fill="#D1D9E0"/>
<ellipse cx="66.7001" cy="95.5348" rx="1.73391" ry="1.75681" transform="rotate(90 66.7001 95.5348)" fill="#D1D9E0"/>
<ellipse cx="46.8618" cy="39.0559" rx="1.73391" ry="1.75681" transform="rotate(90 46.8618 39.0559)" fill="#D1D9E0"/>
<ellipse cx="46.8618" cy="95.5348" rx="1.73391" ry="1.75681" transform="rotate(90 46.8618 95.5348)" fill="#D1D9E0"/>
<ellipse cx="77.372" cy="48.6343" rx="1.98161" ry="1.75681" transform="rotate(90 77.372 48.6343)" fill="#D1D9E0"/>
<ellipse cx="77.372" cy="105.114" rx="1.98159" ry="1.75681" transform="rotate(90 77.372 105.114)" fill="#D1D9E0"/>
<ellipse cx="56.0286" cy="48.6343" rx="1.98161" ry="1.75681" transform="rotate(90 56.0286 48.6343)" fill="#D1D9E0"/>
<ellipse cx="56.0286" cy="105.114" rx="1.98159" ry="1.75681" transform="rotate(90 56.0286 105.114)" fill="#D1D9E0"/>
<ellipse cx="66.7001" cy="48.6343" rx="1.98161" ry="1.75681" transform="rotate(90 66.7001 48.6343)" fill="#D1D9E0"/>
<ellipse cx="66.7001" cy="105.114" rx="1.98159" ry="1.75681" transform="rotate(90 66.7001 105.114)" fill="#D1D9E0"/>
<ellipse cx="46.8618" cy="48.6343" rx="1.98161" ry="1.75681" transform="rotate(90 46.8618 48.6343)" fill="#D1D9E0"/>
<ellipse cx="46.8618" cy="105.114" rx="1.98159" ry="1.75681" transform="rotate(90 46.8618 105.114)" fill="#D1D9E0"/>
<ellipse cx="33.7703" cy="116.307" rx="1.73391" ry="1.75681" transform="rotate(90 33.7703 116.307)" fill="#D1D9E0"/>
<ellipse cx="12.4294" cy="116.307" rx="1.73391" ry="1.75681" transform="rotate(90 12.4294 116.307)" fill="#D1D9E0"/>
<ellipse cx="23.1011" cy="116.307" rx="1.73391" ry="1.75681" transform="rotate(90 23.1011 116.307)" fill="#D1D9E0"/>
<ellipse cx="1.75772" cy="116.307" rx="1.73391" ry="1.75681" transform="rotate(90 1.75772 116.307)" fill="#D1D9E0"/>
<ellipse cx="33.7727" cy="125.638" rx="1.73388" ry="1.75681" transform="rotate(90 33.7727 125.638)" fill="#D1D9E0"/>
<ellipse cx="12.4294" cy="125.638" rx="1.73388" ry="1.75681" transform="rotate(90 12.4294 125.638)" fill="#D1D9E0"/>
<ellipse cx="23.1009" cy="125.638" rx="1.73388" ry="1.75681" transform="rotate(90 23.1009 125.638)" fill="#D1D9E0"/>
<ellipse cx="1.75773" cy="125.638" rx="1.73388" ry="1.75681" transform="rotate(90 1.75773 125.638)" fill="#D1D9E0"/>
<ellipse cx="33.7727" cy="134.969" rx="1.73388" ry="1.75681" transform="rotate(90 33.7727 134.969)" fill="#D1D9E0"/>
<ellipse cx="12.4294" cy="134.968" rx="1.73388" ry="1.75681" transform="rotate(90 12.4294 134.968)" fill="#D1D9E0"/>
<ellipse cx="23.1011" cy="134.968" rx="1.73388" ry="1.75681" transform="rotate(90 23.1011 134.968)" fill="#D1D9E0"/>
<ellipse cx="1.75773" cy="134.969" rx="1.73388" ry="1.75681" transform="rotate(90 1.75773 134.969)" fill="#D1D9E0"/>
<ellipse cx="33.7727" cy="144.299" rx="1.73391" ry="1.75681" transform="rotate(90 33.7727 144.299)" fill="#D1D9E0"/>
<ellipse cx="12.4294" cy="144.299" rx="1.73391" ry="1.75681" transform="rotate(90 12.4294 144.299)" fill="#D1D9E0"/>
<ellipse cx="23.1009" cy="144.299" rx="1.73391" ry="1.75681" transform="rotate(90 23.1009 144.299)" fill="#D1D9E0"/>
<ellipse cx="1.75773" cy="144.299" rx="1.73391" ry="1.75681" transform="rotate(90 1.75773 144.299)" fill="#D1D9E0"/>
<ellipse cx="33.7727" cy="153.63" rx="1.73391" ry="1.75681" transform="rotate(90 33.7727 153.63)" fill="#D1D9E0"/>
<ellipse cx="12.4294" cy="153.63" rx="1.73391" ry="1.75681" transform="rotate(90 12.4294 153.63)" fill="#D1D9E0"/>
<ellipse cx="23.1011" cy="153.629" rx="1.73391" ry="1.75681" transform="rotate(90 23.1011 153.629)" fill="#D1D9E0"/>
<ellipse cx="1.75773" cy="153.63" rx="1.73391" ry="1.75681" transform="rotate(90 1.75773 153.63)" fill="#D1D9E0"/>
<ellipse cx="77.37" cy="116.308" rx="1.73391" ry="1.75681" transform="rotate(90 77.37 116.308)" fill="#D1D9E0"/>
<ellipse cx="56.0287" cy="116.307" rx="1.73391" ry="1.75681" transform="rotate(90 56.0287 116.307)" fill="#D1D9E0"/>
<ellipse cx="66.7004" cy="116.307" rx="1.73391" ry="1.75681" transform="rotate(90 66.7004 116.307)" fill="#D1D9E0"/>
<ellipse cx="46.8619" cy="116.307" rx="1.73391" ry="1.75681" transform="rotate(90 46.8619 116.307)" fill="#D1D9E0"/>
<ellipse cx="77.3721" cy="125.637" rx="1.73388" ry="1.75681" transform="rotate(90 77.3721 125.637)" fill="#D1D9E0"/>
<ellipse cx="56.0288" cy="125.637" rx="1.73388" ry="1.75681" transform="rotate(90 56.0288 125.637)" fill="#D1D9E0"/>
<ellipse cx="66.7002" cy="125.637" rx="1.73388" ry="1.75681" transform="rotate(90 66.7002 125.637)" fill="#D1D9E0"/>
<ellipse cx="46.8619" cy="125.637" rx="1.73388" ry="1.75681" transform="rotate(90 46.8619 125.637)" fill="#D1D9E0"/>
<ellipse cx="77.3721" cy="134.968" rx="1.73388" ry="1.75681" transform="rotate(90 77.3721 134.968)" fill="#D1D9E0"/>
<ellipse cx="56.0288" cy="134.968" rx="1.73388" ry="1.75681" transform="rotate(90 56.0288 134.968)" fill="#D1D9E0"/>
<ellipse cx="66.7004" cy="134.968" rx="1.73388" ry="1.75681" transform="rotate(90 66.7004 134.968)" fill="#D1D9E0"/>
<ellipse cx="46.8619" cy="134.968" rx="1.73388" ry="1.75681" transform="rotate(90 46.8619 134.968)" fill="#D1D9E0"/>
<ellipse cx="77.3721" cy="144.298" rx="1.73388" ry="1.75681" transform="rotate(90 77.3721 144.298)" fill="#D1D9E0"/>
<ellipse cx="56.0287" cy="144.298" rx="1.73391" ry="1.75681" transform="rotate(90 56.0287 144.298)" fill="#D1D9E0"/>
<ellipse cx="66.7002" cy="144.298" rx="1.73388" ry="1.75681" transform="rotate(90 66.7002 144.298)" fill="#D1D9E0"/>
<ellipse cx="46.8619" cy="144.298" rx="1.73391" ry="1.75681" transform="rotate(90 46.8619 144.298)" fill="#D1D9E0"/>
<ellipse cx="77.3721" cy="153.629" rx="1.73391" ry="1.75681" transform="rotate(90 77.3721 153.629)" fill="#D1D9E0"/>
<ellipse cx="56.0287" cy="153.629" rx="1.73391" ry="1.75681" transform="rotate(90 56.0287 153.629)" fill="#D1D9E0"/>
<ellipse cx="66.7004" cy="153.629" rx="1.73391" ry="1.75681" transform="rotate(90 66.7004 153.629)" fill="#D1D9E0"/>
<ellipse cx="46.8619" cy="153.629" rx="1.73391" ry="1.75681" transform="rotate(90 46.8619 153.629)" fill="#D1D9E0"/>
<ellipse cx="118.711" cy="1.73475" rx="1.7339" ry="1.75681" transform="rotate(90 118.711 1.73475)" fill="#D1D9E0"/>
<ellipse cx="118.71" cy="58.2129" rx="1.73388" ry="1.75681" transform="rotate(90 118.71 58.2129)" fill="#D1D9E0"/>
<ellipse cx="97.3678" cy="1.73402" rx="1.7339" ry="1.75681" transform="rotate(90 97.3678 1.73402)" fill="#D1D9E0"/>
<ellipse cx="97.3668" cy="58.2129" rx="1.73388" ry="1.75681" transform="rotate(90 97.3668 58.2129)" fill="#D1D9E0"/>
<ellipse cx="108.039" cy="1.73402" rx="1.7339" ry="1.75681" transform="rotate(90 108.039 1.73402)" fill="#D1D9E0"/>
<ellipse cx="108.038" cy="58.2129" rx="1.73388" ry="1.75681" transform="rotate(90 108.038 58.2129)" fill="#D1D9E0"/>
<ellipse cx="86.6963" cy="1.73402" rx="1.7339" ry="1.75681" transform="rotate(90 86.6963 1.73402)" fill="#D1D9E0"/>
<ellipse cx="86.6951" cy="58.2129" rx="1.73388" ry="1.75681" transform="rotate(90 86.6951 58.2129)" fill="#D1D9E0"/>
<ellipse cx="118.71" cy="11.0642" rx="1.7339" ry="1.75681" transform="rotate(90 118.71 11.0642)" fill="#D1D9E0"/>
<ellipse cx="118.71" cy="67.5431" rx="1.73391" ry="1.75681" transform="rotate(90 118.71 67.5431)" fill="#D1D9E0"/>
<ellipse cx="97.3668" cy="11.0642" rx="1.7339" ry="1.75681" transform="rotate(90 97.3668 11.0642)" fill="#D1D9E0"/>
<ellipse cx="97.3668" cy="67.5437" rx="1.73391" ry="1.75681" transform="rotate(90 97.3668 67.5437)" fill="#D1D9E0"/>
<ellipse cx="108.038" cy="11.0642" rx="1.7339" ry="1.75681" transform="rotate(90 108.038 11.0642)" fill="#D1D9E0"/>
<ellipse cx="108.038" cy="67.5437" rx="1.73391" ry="1.75681" transform="rotate(90 108.038 67.5437)" fill="#D1D9E0"/>
<ellipse cx="86.6951" cy="11.0642" rx="1.7339" ry="1.75681" transform="rotate(90 86.6951 11.0642)" fill="#D1D9E0"/>
<ellipse cx="86.6951" cy="67.5437" rx="1.73391" ry="1.75681" transform="rotate(90 86.6951 67.5437)" fill="#D1D9E0"/>
<ellipse cx="118.71" cy="20.395" rx="1.73391" ry="1.75681" transform="rotate(90 118.71 20.395)" fill="#D1D9E0"/>
<ellipse cx="118.71" cy="76.8744" rx="1.73391" ry="1.75681" transform="rotate(90 118.71 76.8744)" fill="#D1D9E0"/>
<ellipse cx="97.3668" cy="20.395" rx="1.73391" ry="1.75681" transform="rotate(90 97.3668 20.395)" fill="#D1D9E0"/>
<ellipse cx="97.3668" cy="76.8744" rx="1.73391" ry="1.75681" transform="rotate(90 97.3668 76.8744)" fill="#D1D9E0"/>
<ellipse cx="108.039" cy="20.395" rx="1.73391" ry="1.75681" transform="rotate(90 108.039 20.395)" fill="#D1D9E0"/>
<ellipse cx="108.039" cy="76.8744" rx="1.73391" ry="1.75681" transform="rotate(90 108.039 76.8744)" fill="#D1D9E0"/>
<ellipse cx="86.6951" cy="20.395" rx="1.73391" ry="1.75681" transform="rotate(90 86.6951 20.395)" fill="#D1D9E0"/>
<ellipse cx="86.6951" cy="76.8744" rx="1.73391" ry="1.75681" transform="rotate(90 86.6951 76.8744)" fill="#D1D9E0"/>
<ellipse cx="118.71" cy="29.7257" rx="1.73388" ry="1.75681" transform="rotate(90 118.71 29.7257)" fill="#D1D9E0"/>
<ellipse cx="118.71" cy="86.2051" rx="1.73391" ry="1.75681" transform="rotate(90 118.71 86.2051)" fill="#D1D9E0"/>
<ellipse cx="97.3673" cy="29.7257" rx="1.73388" ry="1.75681" transform="rotate(90 97.3673 29.7257)" fill="#D1D9E0"/>
<ellipse cx="97.3673" cy="86.2056" rx="1.73391" ry="1.75681" transform="rotate(90 97.3673 86.2056)" fill="#D1D9E0"/>
<ellipse cx="108.038" cy="29.7257" rx="1.73388" ry="1.75681" transform="rotate(90 108.038 29.7257)" fill="#D1D9E0"/>
<ellipse cx="108.038" cy="86.2056" rx="1.73391" ry="1.75681" transform="rotate(90 108.038 86.2056)" fill="#D1D9E0"/>
<ellipse cx="86.6951" cy="29.7257" rx="1.73388" ry="1.75681" transform="rotate(90 86.6951 29.7257)" fill="#D1D9E0"/>
<ellipse cx="86.6951" cy="86.2056" rx="1.73391" ry="1.75681" transform="rotate(90 86.6951 86.2056)" fill="#D1D9E0"/>
<ellipse cx="118.71" cy="39.0561" rx="1.73391" ry="1.75681" transform="rotate(90 118.71 39.0561)" fill="#D1D9E0"/>
<ellipse cx="118.71" cy="95.5349" rx="1.73391" ry="1.75681" transform="rotate(90 118.71 95.5349)" fill="#D1D9E0"/>
<ellipse cx="97.3673" cy="39.0561" rx="1.73391" ry="1.75681" transform="rotate(90 97.3673 39.0561)" fill="#D1D9E0"/>
<ellipse cx="97.3673" cy="95.5349" rx="1.73391" ry="1.75681" transform="rotate(90 97.3673 95.5349)" fill="#D1D9E0"/>
<ellipse cx="108.038" cy="39.0561" rx="1.73391" ry="1.75681" transform="rotate(90 108.038 39.0561)" fill="#D1D9E0"/>
<ellipse cx="108.038" cy="95.5349" rx="1.73391" ry="1.75681" transform="rotate(90 108.038 95.5349)" fill="#D1D9E0"/>
<ellipse cx="86.6951" cy="39.0561" rx="1.73391" ry="1.75681" transform="rotate(90 86.6951 39.0561)" fill="#D1D9E0"/>
<ellipse cx="86.6951" cy="95.5349" rx="1.73391" ry="1.75681" transform="rotate(90 86.6951 95.5349)" fill="#D1D9E0"/>
<ellipse cx="118.71" cy="48.6344" rx="1.98161" ry="1.75681" transform="rotate(90 118.71 48.6344)" fill="#D1D9E0"/>
<ellipse cx="118.71" cy="105.113" rx="1.98159" ry="1.75681" transform="rotate(90 118.71 105.113)" fill="#D1D9E0"/>
<ellipse cx="97.3673" cy="48.6344" rx="1.98161" ry="1.75681" transform="rotate(90 97.3673 48.6344)" fill="#D1D9E0"/>
<ellipse cx="97.3673" cy="105.114" rx="1.98159" ry="1.75681" transform="rotate(90 97.3673 105.114)" fill="#D1D9E0"/>
<ellipse cx="108.039" cy="48.6344" rx="1.98161" ry="1.75681" transform="rotate(90 108.039 48.6344)" fill="#D1D9E0"/>
<ellipse cx="108.039" cy="105.114" rx="1.98159" ry="1.75681" transform="rotate(90 108.039 105.114)" fill="#D1D9E0"/>
<ellipse cx="86.6951" cy="48.6344" rx="1.98161" ry="1.75681" transform="rotate(90 86.6951 48.6344)" fill="#D1D9E0"/>
<ellipse cx="86.6951" cy="105.114" rx="1.98159" ry="1.75681" transform="rotate(90 86.6951 105.114)" fill="#D1D9E0"/>
<ellipse cx="140.967" cy="1.7339" rx="1.7339" ry="1.75681" transform="rotate(90 140.967 1.7339)" fill="#D1D9E0"/>
<ellipse cx="140.966" cy="58.2128" rx="1.73388" ry="1.75681" transform="rotate(90 140.966 58.2128)" fill="#D1D9E0"/>
<ellipse cx="151.638" cy="1.73463" rx="1.7339" ry="1.75681" transform="rotate(90 151.638 1.73463)" fill="#D1D9E0"/>
<ellipse cx="151.638" cy="58.2128" rx="1.73388" ry="1.75681" transform="rotate(90 151.638 58.2128)" fill="#D1D9E0"/>
<ellipse cx="130.295" cy="1.7339" rx="1.7339" ry="1.75681" transform="rotate(90 130.295 1.7339)" fill="#D1D9E0"/>
<ellipse cx="130.294" cy="58.2128" rx="1.73388" ry="1.75681" transform="rotate(90 130.294 58.2128)" fill="#D1D9E0"/>
<ellipse cx="140.966" cy="11.0641" rx="1.7339" ry="1.75681" transform="rotate(90 140.966 11.0641)" fill="#D1D9E0"/>
<ellipse cx="140.966" cy="67.5436" rx="1.73391" ry="1.75681" transform="rotate(90 140.966 67.5436)" fill="#D1D9E0"/>
<ellipse cx="151.638" cy="11.0641" rx="1.7339" ry="1.75681" transform="rotate(90 151.638 11.0641)" fill="#D1D9E0"/>
<ellipse cx="151.638" cy="67.5435" rx="1.73391" ry="1.75681" transform="rotate(90 151.638 67.5435)" fill="#D1D9E0"/>
<ellipse cx="130.294" cy="11.0641" rx="1.7339" ry="1.75681" transform="rotate(90 130.294 11.0641)" fill="#D1D9E0"/>
<ellipse cx="130.294" cy="67.5436" rx="1.73391" ry="1.75681" transform="rotate(90 130.294 67.5436)" fill="#D1D9E0"/>
<ellipse cx="140.966" cy="20.3949" rx="1.73391" ry="1.75681" transform="rotate(90 140.966 20.3949)" fill="#D1D9E0"/>
<ellipse cx="140.966" cy="76.8743" rx="1.73391" ry="1.75681" transform="rotate(90 140.966 76.8743)" fill="#D1D9E0"/>
<ellipse cx="151.638" cy="20.3949" rx="1.73391" ry="1.75681" transform="rotate(90 151.638 20.3949)" fill="#D1D9E0"/>
<ellipse cx="151.638" cy="76.8743" rx="1.73391" ry="1.75681" transform="rotate(90 151.638 76.8743)" fill="#D1D9E0"/>
<ellipse cx="130.294" cy="20.3949" rx="1.73391" ry="1.75681" transform="rotate(90 130.294 20.3949)" fill="#D1D9E0"/>
<ellipse cx="130.294" cy="76.8743" rx="1.73391" ry="1.75681" transform="rotate(90 130.294 76.8743)" fill="#D1D9E0"/>
<ellipse cx="140.966" cy="29.7256" rx="1.73388" ry="1.75681" transform="rotate(90 140.966 29.7256)" fill="#D1D9E0"/>
<ellipse cx="140.966" cy="86.2055" rx="1.73391" ry="1.75681" transform="rotate(90 140.966 86.2055)" fill="#D1D9E0"/>
<ellipse cx="151.638" cy="29.7256" rx="1.73388" ry="1.75681" transform="rotate(90 151.638 29.7256)" fill="#D1D9E0"/>
<ellipse cx="151.638" cy="86.2055" rx="1.73391" ry="1.75681" transform="rotate(90 151.638 86.2055)" fill="#D1D9E0"/>
<ellipse cx="130.294" cy="29.7256" rx="1.73388" ry="1.75681" transform="rotate(90 130.294 29.7256)" fill="#D1D9E0"/>
<ellipse cx="130.294" cy="86.2055" rx="1.73391" ry="1.75681" transform="rotate(90 130.294 86.2055)" fill="#D1D9E0"/>
<ellipse cx="140.966" cy="39.0559" rx="1.73391" ry="1.75681" transform="rotate(90 140.966 39.0559)" fill="#D1D9E0"/>
<ellipse cx="140.966" cy="95.5348" rx="1.73391" ry="1.75681" transform="rotate(90 140.966 95.5348)" fill="#D1D9E0"/>
<ellipse cx="151.638" cy="39.0559" rx="1.73391" ry="1.75681" transform="rotate(90 151.638 39.0559)" fill="#D1D9E0"/>
<ellipse cx="151.638" cy="95.5348" rx="1.73391" ry="1.75681" transform="rotate(90 151.638 95.5348)" fill="#D1D9E0"/>
<ellipse cx="130.294" cy="39.0559" rx="1.73391" ry="1.75681" transform="rotate(90 130.294 39.0559)" fill="#D1D9E0"/>
<ellipse cx="130.294" cy="95.5348" rx="1.73391" ry="1.75681" transform="rotate(90 130.294 95.5348)" fill="#D1D9E0"/>
<ellipse cx="140.966" cy="48.6343" rx="1.98161" ry="1.75681" transform="rotate(90 140.966 48.6343)" fill="#D1D9E0"/>
<ellipse cx="140.966" cy="105.114" rx="1.98159" ry="1.75681" transform="rotate(90 140.966 105.114)" fill="#D1D9E0"/>
<ellipse cx="151.638" cy="48.6343" rx="1.98161" ry="1.75681" transform="rotate(90 151.638 48.6343)" fill="#D1D9E0"/>
<ellipse cx="151.638" cy="105.114" rx="1.98159" ry="1.75681" transform="rotate(90 151.638 105.114)" fill="#D1D9E0"/>
<ellipse cx="130.294" cy="48.6343" rx="1.98161" ry="1.75681" transform="rotate(90 130.294 48.6343)" fill="#D1D9E0"/>
<ellipse cx="130.294" cy="105.114" rx="1.98159" ry="1.75681" transform="rotate(90 130.294 105.114)" fill="#D1D9E0"/>
<ellipse cx="118.71" cy="116.307" rx="1.73391" ry="1.75681" transform="rotate(90 118.71 116.307)" fill="#D1D9E0"/>
<ellipse cx="97.3671" cy="116.307" rx="1.73391" ry="1.75681" transform="rotate(90 97.3671 116.307)" fill="#D1D9E0"/>
<ellipse cx="108.039" cy="116.307" rx="1.73391" ry="1.75681" transform="rotate(90 108.039 116.307)" fill="#D1D9E0"/>
<ellipse cx="86.6957" cy="116.307" rx="1.73391" ry="1.75681" transform="rotate(90 86.6957 116.307)" fill="#D1D9E0"/>
<ellipse cx="118.71" cy="125.638" rx="1.73388" ry="1.75681" transform="rotate(90 118.71 125.638)" fill="#D1D9E0"/>
<ellipse cx="97.3663" cy="125.638" rx="1.73388" ry="1.75681" transform="rotate(90 97.3663 125.638)" fill="#D1D9E0"/>
<ellipse cx="108.038" cy="125.638" rx="1.73388" ry="1.75681" transform="rotate(90 108.038 125.638)" fill="#D1D9E0"/>
<ellipse cx="86.6951" cy="125.638" rx="1.73388" ry="1.75681" transform="rotate(90 86.6951 125.638)" fill="#D1D9E0"/>
<ellipse cx="118.71" cy="134.968" rx="1.73388" ry="1.75681" transform="rotate(90 118.71 134.968)" fill="#D1D9E0"/>
<ellipse cx="97.3663" cy="134.969" rx="1.73388" ry="1.75681" transform="rotate(90 97.3663 134.969)" fill="#D1D9E0"/>
<ellipse cx="108.038" cy="134.969" rx="1.73388" ry="1.75681" transform="rotate(90 108.038 134.969)" fill="#D1D9E0"/>
<ellipse cx="86.6952" cy="134.969" rx="1.73388" ry="1.75681" transform="rotate(90 86.6952 134.969)" fill="#D1D9E0"/>
<ellipse cx="118.71" cy="144.299" rx="1.73391" ry="1.75681" transform="rotate(90 118.71 144.299)" fill="#D1D9E0"/>
<ellipse cx="97.367" cy="144.299" rx="1.73391" ry="1.75681" transform="rotate(90 97.367 144.299)" fill="#D1D9E0"/>
<ellipse cx="108.038" cy="144.299" rx="1.73391" ry="1.75681" transform="rotate(90 108.038 144.299)" fill="#D1D9E0"/>
<ellipse cx="86.6953" cy="144.299" rx="1.73391" ry="1.75681" transform="rotate(90 86.6953 144.299)" fill="#D1D9E0"/>
<ellipse cx="118.71" cy="153.629" rx="1.73391" ry="1.75681" transform="rotate(90 118.71 153.629)" fill="#D1D9E0"/>
<ellipse cx="97.367" cy="153.629" rx="1.73391" ry="1.75681" transform="rotate(90 97.367 153.629)" fill="#D1D9E0"/>
<ellipse cx="108.039" cy="153.629" rx="1.73391" ry="1.75681" transform="rotate(90 108.039 153.629)" fill="#D1D9E0"/>
<ellipse cx="86.6954" cy="153.629" rx="1.73391" ry="1.75681" transform="rotate(90 86.6954 153.629)" fill="#D1D9E0"/>
<ellipse cx="140.967" cy="116.307" rx="1.73391" ry="1.75681" transform="rotate(90 140.967 116.307)" fill="#D1D9E0"/>
<ellipse cx="151.639" cy="116.308" rx="1.73391" ry="1.75681" transform="rotate(90 151.639 116.308)" fill="#D1D9E0"/>
<ellipse cx="130.295" cy="116.307" rx="1.73391" ry="1.75681" transform="rotate(90 130.295 116.307)" fill="#D1D9E0"/>
<ellipse cx="140.966" cy="125.637" rx="1.73388" ry="1.75681" transform="rotate(90 140.966 125.637)" fill="#D1D9E0"/>
<ellipse cx="151.638" cy="125.637" rx="1.73388" ry="1.75681" transform="rotate(90 151.638 125.637)" fill="#D1D9E0"/>
<ellipse cx="130.295" cy="125.637" rx="1.73388" ry="1.75681" transform="rotate(90 130.295 125.637)" fill="#D1D9E0"/>
<ellipse cx="140.966" cy="134.968" rx="1.73388" ry="1.75681" transform="rotate(90 140.966 134.968)" fill="#D1D9E0"/>
<ellipse cx="151.638" cy="134.968" rx="1.73388" ry="1.75681" transform="rotate(90 151.638 134.968)" fill="#D1D9E0"/>
<ellipse cx="130.295" cy="134.968" rx="1.73391" ry="1.75681" transform="rotate(90 130.295 134.968)" fill="#D1D9E0"/>
<ellipse cx="140.966" cy="144.298" rx="1.73388" ry="1.75681" transform="rotate(90 140.966 144.298)" fill="#D1D9E0"/>
<ellipse cx="151.638" cy="144.298" rx="1.73388" ry="1.75681" transform="rotate(90 151.638 144.298)" fill="#D1D9E0"/>
<ellipse cx="130.295" cy="144.298" rx="1.73388" ry="1.75681" transform="rotate(90 130.295 144.298)" fill="#D1D9E0"/>
<ellipse cx="140.966" cy="153.629" rx="1.73391" ry="1.75681" transform="rotate(90 140.966 153.629)" fill="#D1D9E0"/>
<ellipse cx="151.638" cy="153.629" rx="1.73391" ry="1.75681" transform="rotate(90 151.638 153.629)" fill="#D1D9E0"/>
<ellipse cx="130.295" cy="153.629" rx="1.73391" ry="1.75681" transform="rotate(90 130.295 153.629)" fill="#D1D9E0"/>
</mask>
<g mask="url(#mask0)">
<circle cx="78.4716" cy="78.4727" r="78.4716" fill="#C4C4C4" fill-opacity="0.3"/>
</g>
<rect width="81.628" height="22.7488" rx="11.3744" transform="matrix(-1 8.74216e-08 8.74239e-08 1 172.628 13)" fill="#351B86"/>
</svg>
